<svg width="200" height="202" viewBox="0 0 200 202" fill="none" xmlns="http://www.w3.org/2000/svg">
<path fill-rule="evenodd" clip-rule="evenodd" d="M120.395 20.9487L127.346 34.7152L132.766 49.1447L133.651 50.7123L136.475 54.2143L137.557 57.152L150.68 75.9423L155.771 83.3642L161.87 90.1319L162.738 90.8408L166.823 95.6547L167.035 97.6879L167.054 100.13L167.541 102.202L170.327 103.754L171.135 105.42L173.436 112.918L174.461 114.655L175.69 115.394L176.721 116.462L180.304 123.514L182.456 126.224L183.2 127.714L183.487 129.294L184.032 130.825L187.832 135.009L189.043 138.439L190.119 145.924L191.599 150.04L195.635 155.67L195.943 156.85L195.481 157.991L194.751 159.077L194.289 160.142L194.258 161.096L194.827 164.182L195.52 172.983L196.25 177.042L198.864 185.33L199.075 189.384L198.255 193.133L196.479 196.536L195.039 200.57L194.251 200.537L191.623 199.934L189.1 201.052L183.648 199.036L184.519 196.702L184.275 194.512L183.584 192.083L183.372 189.333L184.422 186.723L185.268 184.249L184.649 183.517L183.974 182.875L184.291 180.643L178.523 180.209L176.83 179.246L175.023 178.472L174.284 176.661L173.704 174.566L171.11 173.335L169.491 170.883L169.142 167.693L169.71 165.249L171.054 164.23L172.524 163.678L174.82 164.586L176.684 163.191L175.919 160.918L173.462 159.435L170.768 158.805L168.629 159.938L166.571 160.459L163.665 159.125L160.581 158.604L159.539 159.031L158.677 158.924L158.01 158.028L157.049 157.629L154.813 159.373L152.454 160.301L152.274 158.574L152.468 156.859L151.101 156.178L149.581 155.829L148.474 153.884L146.326 153.715L144.186 154.72L142.756 156.469L143.276 158.895L143.024 161.161L142.558 163.267L140.55 163.078L138.199 162.572L136.252 161.754L134.237 160.682L132.657 159.661L131.063 158.968L129.06 158.735L127.011 158.329L124.935 156.984L123.064 155.564L121.185 155.577L119.289 156.183L117.596 156.483L116.164 156.591L115.595 155.295L114.032 153.669L114.172 152.262L113.389 151.399L109.638 151.828L107.247 152.628L106.531 152.965L105.831 152.949L104.715 152.332L103.853 151.359L105.205 149.262L107.475 147.643L108.384 145.563L106.97 145.136L102.479 144.427L98.0847 142.86L96.2614 144.268L94.7096 145.085L92.8281 144.69L91.2499 145.91L88.6455 147.363L86.0357 147.996L85.0588 146.624V144.503L82.0647 141.329L78.0513 142.688L76.5648 144.517L76.995 149.317L75.3992 150.412L74.872 151.057L74.2619 151.59L73.5847 151.274L72.9182 150.858L70.5095 150.691L68.1184 151.257L68.792 146.49L60.4213 147.636L52.1054 149.916L56.3762 142.001L59.8747 133.394L64.7257 123.032L65.327 120.807L64.872 118.578L65.9054 116.774L67.3619 114.999L68.9242 114.35L69.7442 112.583L68.8501 111.058L67.6775 110.054L65.8066 109.846L63.8863 109.116L61.2342 108.758L56.8082 106.305L54.8157 105.489L52.8372 104.188L50.6647 103.853L48.5575 104.519L46.8083 103.04L46.9476 101.431L47.7764 99.7404L48.1008 97.7831L48.1273 95.7658L46.043 96.4394L45.1084 95.2262L47.4025 92.5265L47.0199 90.7262L46.3851 88.9381L46.8418 87.5839L46.8154 85.9616L46.6619 84.4275L50.6577 81.4757L52.2764 80.9466L53.1793 79.5554L53.5866 75.5102L51.7228 72.6501L50.1922 72.338L48.7356 71.6644L47.6388 68.7143L45.8967 68.6261L44.0328 68.7496L41.9997 67.2613L41.0316 64.6198L40.6331 59.9187L39.8748 57.5488L39.3476 57.0921L38.7286 57.1961L38.3143 57.5982L37.7923 57.674L36.4504 56.7235L33.1635 57.8873L30.1447 57.1538L28.9244 56.4097L27.6795 55.2829L27.639 53.3961L28.2491 51.6186L28.697 50.9398L29.0144 50.2908L28.4924 49.8535L27.8259 49.6931L27.1911 49.8288L26.6374 50.2573L25.597 51.6134L24.4332 52.7948L22.6416 53.1016L21.0634 52.026L20.7707 51.0491L20.649 50.0581L20.0795 49.7089L19.4782 50.3455L19.2736 51.3647L19.2578 54.6586L18.2333 56.2651L15.3449 54.8949L12.6999 52.5021L11.7724 51.5252L10.7955 51.6486L9.92613 50.3808L9.37949 48.732L8.66358 47.8645L7.81011 47.1785L7.15062 45.6056L5.97799 44.8597L3.20425 43.0929L1.64545 42.3276L2.10568 41.7404L6.42235 38.1766L11.4391 35.0273L16.715 32.8848L21.7935 32.3347L24.2974 32.601L34.0046 31.751L41.4707 34.0204L43.8424 33.8018L48.4676 32.3964L63.6536 31.0633L64.3007 31.5041L65.3076 32.9607L66.2757 33.9411L67.3566 34.2197L72.5602 33.1229L80.8197 33.6043L86.1821 33.1793L91.5832 31.2502L96.6123 27.9933L100.802 23.5938L102.625 20.9822L104.145 18.1926L105.172 15.0909L105.514 11.5219L104.847 8.07806L104.676 6.32178L105.172 5.02043L107.319 3.31528L111.77 1L114.122 5.66052L117.794 12.9343L118.524 16.1225L120.395 20.9487Z" fill="#F6A555" stroke="white"/>
</svg>
