<svg width="139" height="135" viewBox="0 0 139 135" fill="none" xmlns="http://www.w3.org/2000/svg">
<path d="M23.5628 55.6185L23.4094 54.6716L22.653 53.8128L21.6725 53.037L20.5951 52.1253L20.0961 51.5663L19.7187 50.9104L19.6288 50.5665L19.3855 48.7432L19.2691 48.3218L19.0786 48.0185L18.7842 47.8527L18.3274 47.9656L17.8866 48.3394L17.5022 48.849L17.2589 49.3322L16.8092 51.2031L16.483 51.9913L15.7918 52.6226L21.1347 56.7929L22.7288 56.6942L23.5628 55.6185ZM31.6989 94.324L29.8985 94.1653L28.509 94.9077L27.8619 95.8087L27.7137 97.0889L27.8936 98.3356L28.4067 98.6583L29.0521 98.593L29.6605 99.0445L30.5527 98.8258L31.2387 98.0217L31.3022 97.4151L31.6284 96.7627L32.4748 96.4717L32.8204 96.0626L32.5136 94.8671L31.6989 94.324ZM36.0121 58.9724L35.5695 57.9091L35.1339 57.3748L35.3896 56.5407L35.1339 52.9629L34.9664 52.2258L34.2364 50.8822L34.0565 50.2103L34.1464 49.6108L34.5555 48.2618L34.6455 47.4595L34.2434 45.8584L33.2366 44.8462L30.7062 43.5696L29.5141 42.4745L28.3292 41.0674L27.0737 40.1592L25.6383 40.5313L23.7797 42.6932L23.018 42.9806L22.6917 44.0545L22.7676 48.7714L22.4801 49.8418L22.653 50.6547L25.4584 56.0153L25.8622 56.5566L26.3048 56.8617L26.393 57.3431L25.7282 58.3905L25.1516 58.7749L22.7288 59.4097L24.344 61.5733L25.8816 62.2928L30.0202 62.0671L30.3217 61.8801L30.648 61.5451L31.0712 61.3952L31.6672 61.7585L32.4924 62.656L32.9668 62.8747L33.5698 62.8059L34.358 62.1147L35.2415 60.0198L36.2607 59.4097L36.0121 58.9724ZM87.4366 69.6142L86.338 70.1696L85.1424 70.9649L85.1671 72.76L85.8019 73.4724L84.4512 75.3186L83.7018 76.6147L81.6598 77.8296L79.4151 78.3533L77.1033 79.5154L76.2005 77.4399L74.2309 77.8966L72.2788 78.505L70.8946 79.3003L69.4557 79.5348L66.0789 79.4202L63.7671 76.3784L61.4889 75.6925L59.9195 74.6574L59.5034 71.8096L57.9428 69.5789L56.079 67.2972L57.2586 64.7597L59.4628 64.9008L61.9862 66.4402L63.8571 65.8036L65.5252 64.7879L65.6557 63.0775L66.1106 61.501L69.6426 61.1625L71.4571 58.8507L72.5627 56.5019L74.1339 54.8197L76.5902 54.2308L79.4221 54.4618L80.7729 56.7911L81.2931 59.9546L82.1165 62.1658L82.1642 64.5922L81.4394 67.4047L83.596 67.3783L85.444 66.7117L87.0468 66.6888L87.6481 68.133L87.4366 69.6142ZM136.851 70.0568L135.678 69.0535L133.807 68.8454L131.887 68.1154L129.235 67.7592L124.809 65.3063L122.815 64.4899L120.838 63.1868L118.665 62.8518L116.558 63.5183L114.809 62.0406L114.947 60.4307L115.775 58.7414L116.102 56.7823L116.126 54.765L114.044 55.4386L113.107 54.2255L115.403 51.5258L115.019 49.7272L114.386 47.9391L114.841 46.5831L114.816 44.9626L114.663 43.4267L118.657 40.4749L120.275 39.9459L121.178 38.5564L121.586 34.5112L119.723 31.6493L118.193 31.3372L116.736 30.6654L115.638 27.7135L113.897 27.6271L112.033 27.7506L110 26.2623L109.031 23.619L108.632 18.918L107.876 16.5498L107.347 16.0913L106.729 16.1953L106.313 16.5991L105.793 16.6732L104.451 15.7228L101.162 16.8883L98.1436 16.1548L96.9251 15.4089L95.6784 14.2839L95.6397 12.3953L96.2498 10.6179L96.6959 9.94077L97.0133 9.29184L96.4931 8.85277L95.8248 8.69407L95.1917 8.82809L94.6381 9.25658L93.5959 10.6126L92.4339 11.794L90.6423 12.1008L89.0641 11.0252L88.7714 10.0483L88.6497 9.05908L88.0802 8.70818L87.4771 9.34474L87.2743 10.364L87.2585 13.6579L86.2322 15.2643L83.3438 13.8959L80.6988 11.5013L79.7713 10.5244L78.7962 10.6496L77.9251 9.38178L77.3802 7.73128L76.6643 6.86548L75.809 6.17953L75.1513 4.60661L73.9787 3.85896L71.2049 2.09386L69.6444 1.32681L68.6745 2.56644L67.6042 5.22028L66.0048 9.1825L64.707 10.6849L61.6723 13.0425L60.2969 14.4426L53.5732 24.7388L50.4398 27.2427L48.4102 28.0168L46.9536 28.1755L46.0067 28.8703L45.5906 31.2473L46.1372 39.8242L46.139 39.8224L47.331 39.0078L48.1069 38.8985L48.6958 39.6391L47.8688 41.2331L47.5109 43.2327L47.6008 44.3701V44.3719L47.6643 45.2218L48.4084 46.7824L48.7417 48.2742L48.3502 50.3884L47.0312 53.9186L51.5665 57.1967L53.046 58.7308L51.1433 58.6127L48.0804 57.3219L45.6664 55.2941L45.6981 52.9629L46.1266 51.6757L46.2412 49.7924L46.0878 47.9568L45.6981 46.7824L44.6472 46.077L43.6209 46.2798L42.4694 46.8229L41.0852 47.1227L36.7474 45.5674L35.7035 45.7614L35.3949 47.1068L36.5305 55.287L37.3751 58.4187L37.6996 60.4236L37.7172 61.7638L38.6165 62.6454L39.4294 64.0367L40.1259 65.19L40.7414 66.6588L41.124 67.5317L44.7107 67.4047L48.747 67.2619L53.3863 71.7232L53.3775 74.0667L54.2239 76.0116L55.4935 76.8457L56.2412 78.0747L55.5006 80.5187L54.3791 82.6912L53.3458 83.4565L52.7586 83.8885L50.2775 84.615L49.2407 85.6642L47.7136 87.886L47.8953 89.0287L51.3214 91.6349L53.7884 92.416L55.2784 92.7141L56.2218 92.7669L57.1705 92.4654L58.3466 92.6805L58.8457 93.4335L59.9389 93.3929L60.676 93.6098L61.2861 94.0136L61.7657 94.6132L62.136 95.4226L60.4009 95.6765L59.1701 94.9306L58.0821 94.7789L56.7561 96.7662L56.3646 98.8875L55.9802 99.8168L55.155 100.143L54.4038 99.7692L54.0194 98.9387L53.9242 97.8683L54.0194 96.7662L52.8097 97.3622L51.7781 97.0272L50.7343 96.38L49.484 96.0344L47.9535 96.4294L47.0806 96.477L46.5057 96.0344L46.005 96.5088L45.781 96.6657L45.4283 96.7662L46.0631 97.9988L46.5886 99.3248L47.1388 100.388L47.8371 100.818L49.9443 100.524L50.1964 100.862L49.2407 102.169L48.4454 102.615L47.3504 102.989L46.3894 103.557L45.9679 104.558L46.2166 105.909L46.9466 106.137L49.2407 105.608L48.0804 107.248L47.6008 108.131L47.569 109.039L48.0804 109.545L48.9268 109.573L49.8367 109.249L50.5614 108.669L53.3669 105.624L54.8852 104.537L56.7561 103.582L56.749 104.788L57.1528 105.567L57.9023 106.01L58.9215 106.218L60.5561 104.8L61.6511 104.2L62.136 104.558L62.0161 106.387L61.5735 107.047L59.4469 107.625L57.4544 107.657L56.1125 108.17L54.8605 108.775L53.7725 110.27L52.8608 111.943L53.0143 113.634L52.7286 114.964L53.0707 115.944L53.046 117.062L56.6714 118.154L58.1914 117.766L59.6956 117.452L60.4397 118.198L61.1891 117.801L61.5541 116.08L61.6952 114.493L62.1184 112.924L62.8026 112.012L63.6949 112.412L63.1182 115.017L63.8994 116.934L64.975 118.607L65.3083 120.485L64.6294 119.956L63.8606 119.691L63.0213 119.644L62.136 119.76L62.8802 120.33L63.2064 120.485V121.099L58.493 121.619L59.5563 124.252L62.3494 127.001L65.4423 128.81L68.0503 129.175L69.8842 128.573L70.4538 127.884L70.2034 124.837L70.9158 123.83L75.6239 122.508L75.4176 123.65L74.8991 123.994L74.2009 124.1L73.1058 124.708L72.702 124.692L72.2788 124.745L71.8556 125.142L71.9967 125.347L72.7267 126.119L72.8819 126.546L72.3441 128.933L71.4906 129.896L70.3056 130.455L69.3005 131.224L69.3252 131.229L72.9947 131.986L76.0788 131.987L82.6208 129.185L86.0206 130.739L89.0641 133.297L92.783 133.8L96.3132 132.763L99.6583 131.15L102.279 130.27L102.986 127.371L104.271 125.976L106.29 125.103L107.241 123.869L107.891 122.231L109.113 120.933L110.651 121.256L111.099 121.85L113.076 120.467L116.835 113.467L117.216 112.629L117.673 111.859L118.283 111.365L118.918 110.922L119.552 109.968L120.106 108.917L124.377 101L127.875 92.3931L132.725 82.0317L133.328 79.8081L132.871 77.5792L133.904 75.7753L135.361 73.9979L136.923 73.349L137.745 71.5821L136.851 70.0568ZM41.9246 96.6781L41.5084 96.2601L40.0078 95.6306L39.0856 95.0999L38.7594 94.324L38.9904 93.4652L38.74 93.3841L37.6326 94.3593L36.3383 93.7315L36.1637 93.9325L36.735 94.5885L37.3169 95.6024L37.7401 97.0642L37.7084 98.2474L36.6821 99.4183L37.0419 99.9931L36.9272 100.661L36.0685 101.827L36.0491 102.326L37.8759 102.097L41.8928 98.8911L42.309 97.9812L42.115 97.1365L41.9246 96.6781ZM3.58586 97.297L3.02336 96.835L2.47144 95.8969L1.8384 95.4578L1.26177 96.2601L0.819179 97.595L0.575829 99.2137L0.568787 99.5664L0.896771 99.6793L1.45222 99.3654L1.66383 99.3002L1.86837 99.8045L2.38151 100.697L3.16443 101.056L4.08667 100.914L4.79729 100.614L5.79712 99.5911L6.12333 98.9792L5.52732 98.3197L3.58586 97.297ZM18.6413 46.3539L20.0379 45.146L20.5581 43.3791L19.8281 42.5521L18.3856 42.3246L16.8357 42.3493L15.3615 41.4482L14.099 41.1238L12.9916 41.4253L12.0235 42.3652L11.1207 45.1125L10.9478 45.4528L11.2617 46.5355L12.0235 46.5144L12.9087 46.0453L13.6317 45.7614L16.9132 46.4667L18.6413 46.3539Z" fill="#F6A555" stroke="white"/>
</svg>
