<svg width="144" height="154" viewBox="0 0 144 154" fill="none" xmlns="http://www.w3.org/2000/svg">
<path d="M77.6327 121.241L76.4037 122.511L75.8094 122.335L75.0688 122.4L75.1094 123.038L75.0053 123.858L74.2647 125.801L74.2559 126.427L74.0196 127.337L72.2616 128.404L67.7139 127.219L65.1676 126.962L64.0444 127.849L62.9211 129.815L62.3181 130.328L61.5951 129.73L60.6252 129.104L59.234 127.974L58.2994 126.165L57.1532 125.034L55.9312 124.56L55.4604 122.765L56.5501 121.241L57.7298 121.233L59.0012 121.026L59.3327 120.106L59.4791 119.138L58.7878 118.882L58.0402 118.759L58.8848 116.849L60.2373 115.361L59.7418 110.928L63.4413 107.852L68.4545 107.177L72.6107 106.907L75.7689 109.224L76.7705 110.968L76.7281 111.737L76.3473 112.386L76.3702 114.844L77.0067 115.798L77.8514 116.517L78.0154 118.06L78.0542 119.705L77.6327 121.241ZM142.032 102.492L141.743 100.818L140.445 99.7849L139.482 101.398L134.48 106.881L132.457 108.468L130.861 108.193L129.604 106.655L128.412 105.317L126.751 103.775L126.823 102.442L128.137 101.358L128.911 101.106L129.733 100.707L130.366 99.8519L130.66 98.3302L130.239 97.7835L129.604 97.3392L129.022 94.8L128.567 91.4849L128.144 90.9929L127.618 90.6349L127.137 89.7462L126.869 88.1469L127.2 76.3483L127.618 74.4139L128.567 72.7563L131 69.808L131.48 68.0129L131.967 59.6582L131.538 55.6078L130.463 51.5891L130.057 47.7345L130.039 47.5705L129.249 47.5369L126.622 46.9339L124.1 48.0518L118.648 46.0364L119.519 43.7017L119.274 41.5098L118.585 39.0835L118.373 36.3326L119.421 33.7229L120.269 31.2489L119.65 30.5171L118.973 29.8753L119.292 27.6411L113.524 27.2109L111.831 26.2463L110.024 25.4704L109.283 23.6612L108.705 21.5664L106.109 20.3356L104.49 17.8827L104.141 14.6929L104.709 12.2471L106.053 11.2296L107.525 10.6777L109.821 11.5858L111.685 10.1893L110.919 7.91806L108.461 6.43509L105.769 5.80559L103.628 6.93764L101.57 7.45958L98.6659 6.12474L95.5819 5.60455L94.5397 6.03128L93.6774 5.92372L93.0109 5.02971L92.0499 4.62766L89.8122 6.37337L87.4528 7.30089L87.2747 5.57457L87.4687 3.85884L86.1021 3.17818L84.5803 2.82904L83.4747 0.884079L81.327 0.714798L79.1862 1.71989L77.7544 3.46913L78.2746 5.89551L78.0224 8.16141L77.5587 10.2668L75.5485 10.0782L73.1979 9.57208L71.2529 8.75389L69.2357 7.68176L68.2747 8.77505L67.2096 9.39046L66.275 9.02896L65.5097 9.51918L63.6952 11.443L61.6921 13.1199L60.3837 14.3913L58.7561 14.9027L57.7792 15.7173L57.088 16.9729L54.6546 18.7009L52.9212 21.1802L52.1012 23.0317L51.0979 24.8674L51.6533 25.8301L52.6937 26.7912L51.5299 30.6494L44.9403 33.4231L42.1313 32.4991L40.9604 30.1239L39.1054 28.5157L37.7952 27.5811L36.7707 26.4297L35.7444 27.4436L34.9227 28.7414L34.533 30.2738L33.9793 31.8943L31.7099 31.7162L29.2765 30.861L28.0068 30.0393L26.6649 30.9068L25.3706 32.6508L23.8013 32.7848L22.5405 31.9507L21.5883 33.5642L20.6025 35.7137L20.0735 37.7275L21.5794 39.6724L22.7256 41.8784L17.1446 40.9914L14.1434 39.6865L12.433 42.2381L9.6839 43.5447L7.23461 45.2093L7.03183 46.3767L7.07943 47.2901L6.64037 48.2917L4.86644 50.6757L3.72908 51.8977L2.57408 52.1075L1.40851 52.6507L2.29548 54.8901L5.37957 55.4138L9.23601 61.0213L7.80417 62.4196L7.02301 64.6573L6.70561 69.9879L6.23479 72.3384L6.73029 74.0224L7.60139 75.5654L6.47108 77.8172L4.72889 79.3248L5.20147 83.9642L8.36668 83.2183L10.2693 83.8408L12.4982 85.7046L14.0288 86.4293L18.0492 85.4648L19.8302 86.7803L20.726 91.8675L19.049 91.7652L17.1623 91.4161L15.2578 93.049L15.6969 95.6675L15.7128 97.0024L15.5417 98.607L14.7853 99.5257L14.1751 100.612L13.5174 103.111L12.2954 105.495L10.3187 106.159L8.40724 107.098L11.6289 112.604L11.2621 118.796L11.8969 120.956L13.4927 121.883L14.2245 122.437L14.9475 123.052L15.0127 123.821L15.3301 124.606L15.9649 124.895L16.6086 125.11L18.9926 125.297L20.0259 126.165L21.3026 127.027L23.565 127.203L25.7956 127.182L27.8287 127.87L29.3241 129.501L30.375 131.495L32.1172 132.73L32.5563 133.634L32.8243 134.47L34.0357 135.221L35.0867 136.457L35.0373 138.744L34.0939 140.929L35.33 145.405L40.188 145.609L42.5633 145.274L44.8327 145.655L46.9646 146.681L48.9836 148.196L51.2196 148.646L55.4357 146.48L57.5923 146.919L59.5355 144.142L61.3517 142.737L62.0024 148.092L63.988 150.518L66.4531 152.079L69.308 151.758L72.2545 151.231L74.8255 152.017L77.2836 153.311L80.2196 153.396L82.7835 151.361L83.9138 150.941L85.0529 150.792L86.1338 149.855L87.0384 148.686L89.8862 147.515L92.9121 148.268L95.2309 149.361L97.4351 148.623L99.3325 147.087L101.359 145.904L102.572 145.875L103.067 144.925L102.311 143.673L101.879 142.315L104.531 140.256L107.86 139.092L110.584 138.679L113.254 139.24L116.028 140.437L116.753 141.629L116.793 143.075L116.987 144.366L117.964 145.069L119.283 145.412L126.604 144.087L132.84 145.614L132.908 145.597L132.304 144.872L131.648 143.146L132.319 141.624L133.859 138.579L135.947 132.31L135.834 128.699L137.874 122.925L138.717 116.274L138.934 113.744L141.771 108.094L143 106.168L142.591 104.232L142.032 102.492Z" fill="#F6A555" stroke="white"/>
</svg>
