<svg width="133" height="126" viewBox="0 0 133 126" fill="none" xmlns="http://www.w3.org/2000/svg">
<path d="M66.5238 104.838L65.7532 104.084L64.3796 104.172L63.1682 104.477L62.417 104.786L61.8809 104.523L60.9552 103.812L59.7402 103.318L58.8162 103.553L58.1849 104.251L58.3525 104.881L58.8868 104.909L59.7861 104.625L61.2038 105.115L61.9656 105.718L61.8227 106.448L61.068 107.048L61.4313 107.339L62.4452 107.49L62.6638 108.118L62.5087 108.748L63.1682 108.772L63.475 109.522L64.0481 110.252L65.3494 110.238L66.1535 109.227L66.4727 108.651L65.8255 108.115L65.1766 107.988L65.1555 107.746L65.4658 107.557L66.2593 107.878L66.6014 107.3L66.314 106.84L66.7319 106.069L66.5238 104.838ZM90.6394 98.2964L89.8758 98.8236L88.2818 99.3861L89.5249 96.1257L89.8388 94.9795L89.8564 93.7187L89.5108 92.7877L89.0312 91.8849L88.6662 90.7563L88.6274 90.192L89.1387 86.6266L89.1158 85.6973L88.7684 84.8985L87.3772 84.3501L86.1675 85.3217L85.7267 87.0727L86.6665 88.8378L81.1508 91.9801L80.1122 91.8514L80.1968 93.3872L80.5689 95.0236L81.4012 96.4572L82.863 97.4182V98.016L81.4012 97.9137L80.3432 97.3936L79.3116 96.72L78.0191 96.1716L77.2115 96.1557L74.2649 96.7658L73.2386 97.2031L72.0413 97.9843L71.0027 98.9982L70.4966 100.1L70.74 101.929L71.6552 103.31L72.7766 104.542L73.6742 105.939L74.9244 104.914L77.7493 103.66L78.5551 102.662L79.6325 103.318L79.2093 105.008L79.1723 106.501L78.6133 107.559L76.6525 107.958L76.1605 108.46L76.1147 109.568L76.4673 110.672L77.1921 111.174L79.6325 109.922L79.2358 111.326L79.1723 112.468L79.5937 113.318L80.7082 113.847L78.0191 115.805L79.7348 115.687L85.4375 113.918L86.6665 112.833L86.0141 112.096L84.718 111.557L83.7835 110.837L84.2261 109.594L85.5909 108.004L85.8342 107.277L86.0776 105.939L86.9751 106.588L88.4546 107.369L89.8317 107.843L90.4348 107.605L90.2214 106.12L89.204 103.95L88.7684 102.662L89.8388 103.114L90.53 102.444L90.8809 101.238L90.9726 100.1L90.895 98.4833L90.6394 98.2964ZM97.1038 81.5322L96.1992 81.6275L95.3669 82.1L95.1482 82.793L95.5661 83.553L95.8342 84.3501L95.739 85.0325L95.9488 85.5245L96.5448 86.1487L96.931 87.8309L97.1232 88.2506L97.527 88.1131L98.0454 87.4007L98.391 85.4134L98.4298 82.98L97.892 81.7685L97.1038 81.5322ZM131.614 56.8401L129.378 56.0484L127.661 54.3467L127.132 51.67L125.326 50.2593L121.274 48.0251L117.872 44.1317L115.831 42.5781L110.981 41.834L109.802 39.4464L111.77 35.4719L111.436 31.6225L109.232 32.3613L106.912 31.268L103.886 30.5169L101.038 31.6877L100.135 32.855L99.0523 33.7914L97.9132 33.9413L96.7829 34.361L94.219 36.3976L91.283 36.313L88.8249 35.0169L86.2521 34.2287L83.3091 34.7577L80.4525 35.0786L77.9873 33.5181L76.0018 31.0917L75.3511 25.7364L73.5367 27.1418L71.5917 29.9191L69.4351 29.48L65.2207 31.6454L62.983 31.1957L60.9657 29.681L58.8339 28.6548L56.5644 28.2739L54.1874 28.6107L49.3312 28.4044L48.0933 23.929L49.0367 21.7442L49.0861 19.4571L48.0369 18.221L46.8237 17.4698L46.5557 16.634L46.1166 15.7294L44.3744 14.4951L43.327 12.5007L41.8281 10.8696L39.795 10.1819L37.5644 10.2031L35.3038 10.0268L34.0253 9.16448L32.992 8.29691L30.608 8.11176L29.9661 7.89487L29.3295 7.60567L29.0139 6.82099L28.9469 6.05394L28.2239 5.43677L27.4921 4.88307L25.8963 3.95555L25.2633 1.79545L22.3819 4.89012L21.6166 6.93208L17.702 9.01283L15.7676 9.60884L14.692 9.49422L13.9196 9.99149L12.4384 13.199L10.7386 14.9782L8.93995 16.5758L8.0618 19.1168L7.83432 22.0969L6.84156 24.2711L5.61956 26.5546L4.70085 29.4747L4.02549 32.4918L2.9287 34.7365L2.84582 37.1717L4.86485 38.0252L5.15757 39.0938L5.30392 40.3158L6.17325 42.5923L6.03571 45.0662L6.84156 46.8913L7.97186 47.646L7.50105 50.2963L4.21418 54.2339L3.69222 56.8172L3.57937 59.1959L1.92711 60.8852L1.50391 62.9889L3.12266 64.9004L3.91264 67.3673L4.24591 72.4863L5.31097 74.4013L7.24889 75.8137L9.00519 77.6599L9.68937 79.6931L10.5358 81.467L15.4414 86.8152L16.4994 89.4232L16.4906 91.2095L16.6899 91.6345L16.6934 91.6362L17.5133 91.8584L18.6842 92.8265L19.1656 92.3751L19.7863 92.3045L20.5375 92.495L21.3751 92.8265L23.477 92.6396L25.1239 91.1619L25.9704 88.7144L26.2014 85.6179L27.0848 86.3021L27.5838 87.2437L28.4108 89.552L30.4475 88.2629L32.5811 88.3088L33.5616 87.644L32.1191 84.2408L34.0112 84.0768L35.2597 82.786L36.2718 81.065L37.5009 79.589L37.4057 80.767L37.06 81.6892L36.6562 82.3928L36.427 82.9253L36.2965 84.0732L36.427 91.1936L36.2965 91.839L36.099 92.562L36.0602 93.3167L36.427 94.0855L37.0794 94.4417L38.931 94.6004L40.0648 94.8632L40.9412 94.7027L41.3062 94.7979L41.3908 95.1682L41.4102 96.5736L41.5777 97.0938L43.0184 97.8979L46.6756 97.7356L48.3419 98.016L48.3031 96.593L48.4636 95.1206L48.8992 93.9603L49.6874 93.4842L51.4754 93.6676L52.3465 94.2266L54.0111 96.4696L55.8379 96.3532L57.1322 93.8528L58.4195 92.5779L60.2075 96.1716L58.3948 96.8751L57.5872 97.3812L57.7459 98.173L58.8744 99.7406L59.8936 100.148L64.7816 100.698L64.3902 101.343L63.7448 101.46L62.2248 101.481L62.186 102.948L64.5506 103.107L66.3122 102.576L68.2995 99.9839L69.3945 98.016L68.3295 96.7658L68.0879 97.711L67.543 98.4763L66.8518 98.7055L66.1271 98.016L66.716 94.0855L66.8183 92.0859L66.7936 91.3647L66.716 90.8656L66.1852 90.0439L65.4729 89.6295L65.1078 89.1764L65.6404 88.2383L66.6578 88.6597L68.1955 88.7302L69.7331 88.4728L70.74 87.9085L71.3748 86.6319L71.2143 85.528L70.74 84.2884L70.4702 82.5973L69.1371 82.6872L61.2831 86.8664V86.2122L62.1225 85.3428L62.2777 84.0221L62.6797 82.8054L65.7744 81.959L68.4706 80.5977L69.9341 80.305L69.0225 79.0195L68.9713 78.3441L69.682 77.9897L72.2917 77.4924L73.482 77.5682L77.7281 79.0671L78.2677 79.5062L79.0242 80.305L79.2852 80.9221L79.3257 81.5658L79.562 82.0736L80.4014 82.2693L81.9954 82.264L82.6884 82.0824L83.3814 81.6187L82.8224 81.4705L81.8491 81.0491L81.2284 80.9627L81.6004 79.6807L81.4065 78.7902L80.0928 77.0163L79.4209 75.856L79.0947 74.9638L78.5357 72.4175L77.5377 70.3297L77.5571 69.2981L78.5357 67.7535L79.4403 66.93L79.9023 67.1962L80.6888 69.7284L80.382 70.4461L81.0344 72.3787L80.6888 73.7365L82.2723 73.1035L83.3479 73.9763L84.3231 75.387L85.5715 76.3656L85.6156 74.8774L86.1851 73.9922L86.8587 73.7153L87.1867 74.0627V78.2736L88.3964 77.3355L89.338 77.4466L90.1968 79.0565L92.0289 79.8835L92.8171 79.5062L93.533 76.8365L94.0602 77.7728L94.3583 79.5397L99.5425 79.4568L101.493 79.6825L102.048 77.376L102.732 75.8507L103.256 75.9266L103.182 77.7657L103.258 79.7195L104.346 79.6437L106.749 75.4011L107.463 74.3501L107.839 74.6869L108.491 73.4914L109.689 72.0031L110.81 70.2909L111.632 64.6006L112.755 63.2058L114.251 62.1178L116.107 61.3754L118.1 61.453L119.646 62.4405L120.085 64.5547L121.494 66.5138L123.291 67.9686L124.716 69.8095L126.301 71.4283L126.456 71.7757L126.598 71.4865L127.356 69.91L128.756 68.2207L130.008 65.5546L130.9 63.7454L130.874 63.2058L130.429 61.8903L130.96 61.0986L131.427 60.1764L131.561 58.3989L131.933 57.117L131.614 56.8401ZM37.7707 102.387L37.3104 101.753L36.8626 100.16L36.6809 99.007L36.2895 98.7884L35.8874 98.4075L35.6564 97.7356L34.8999 97.8626L33.9777 99.3279L33.5157 100.37L33.1013 100.086L33.0237 99.2028L33.2988 98.1447L33.8508 96.593L33.4452 95.5315L32.1967 95.8718L31.479 96.7958L30.7931 98.1095L29.7175 99.5043L29.1796 100.982L29.8709 102.35L31.0435 103.063L32.1844 103.2L34.1329 102.573L37.6931 103.512L38.5272 103.303L38.0916 102.643L37.7707 102.387ZM53.7554 122.814L53.3975 122.777L53.3904 122.184L50.8988 120.853L50.3663 120.984L50.0524 121.289L50.0206 121.811L49.809 122.246L49.7773 122.726L50.1229 122.99L50.4174 123.056L50.763 123.401L50.8406 123.898L50.5655 124.509L50.6413 124.865L51.1104 124.766L51.5195 124.38L52.3588 123.964L52.9725 123.874L53.7166 124.041L54.2227 123.967L54.563 123.741L55.3195 122.807L55.4341 122.296L55.2366 122.082L53.7554 122.814ZM36.9825 105.073L34.3304 104.629L32.5053 105.02L30.5692 105.78L29.0456 106.05L28.097 104.352L26.4112 103.786L25.7394 103.318L25.2968 102.444L24.9317 100.763L24.6108 100.1L26.3794 98.2505L27.0724 97.0427L27.18 95.7819L26.5717 94.5828L25.5278 93.6482L24.3357 93.2797L23.2971 93.784L22.0363 94.7732L21.5743 95.3798L21.204 97.5011L20.7279 97.8203L20.1143 97.9331L19.513 98.3757L18.6084 100.1L18.3968 101.788L18.6842 103.497L20.8584 110.576L21.0295 111.793L21.0489 112.632L21.1635 113.341L21.6519 114.204L22.3696 114.674L23.5475 115.08L24.6637 115.045L25.1433 114.204L25.4061 112.204L26.1044 110.589L27.1359 109.875L28.4285 110.576L29.3137 114.447L30.0966 116.302L31.3768 116.131L32.8368 115.454L34.0817 115.999L35.2332 116.693L36.4446 116.468L36.7709 115.493L36.1043 113.548L36.7321 113.193L37.1817 112.701L37.2452 111.571L37.0265 109.594L37.2575 108.342L37.6931 107.325L37.9241 106.364L37.522 105.276L36.9825 105.073ZM50.8159 107.007L51.0522 106.715L50.994 106.037L51.3925 105.828H52.2372L52.5511 105.313L52.1085 104.567L50.9305 103.248L49.9378 103.017L48.8798 103.817L48.3419 104.699L48.2467 105.218L48.7457 105.967L49.6098 106.57L50.0718 106.797L50.8159 107.007Z" fill="#F6A555" stroke="white"/>
</svg>
