<svg width="25" height="25" viewBox="0 0 25 25" fill="none" xmlns="http://www.w3.org/2000/svg">
<path fill-rule="evenodd" clip-rule="evenodd" d="M22.4031 16.5104L21.8089 16.334L21.0683 16.401L21.1106 17.0376L21.0048 17.8593L20.2642 19.8008L20.2554 20.4285L20.0191 21.3366L18.261 22.4035L13.7133 21.2185L11.1671 20.9611L10.0438 21.8498L8.92056 23.8159L8.31926 24.3308L7.59629 23.7313L6.62645 23.1035L5.23693 21.975L4.29883 20.164L3.15265 19.0355L1.93242 18.5576L1.45984 16.7661L2.54959 15.2408L3.72927 15.2337L5.00064 15.0256L5.33215 14.1069L5.47851 13.1371L4.78904 12.8814L4.03962 12.758L4.88426 10.8483L6.23675 9.35999L5.73948 4.9287L9.44075 1.85166L14.4539 1.17806L18.6119 0.906504L21.7701 3.22354L22.7699 4.96926L22.7293 5.73808L22.3467 6.38522L22.3696 8.84333L23.0062 9.7973L23.8508 10.5185L24.0148 12.0614L24.0554 13.7049L23.6322 15.2408L22.4031 16.5104Z" fill="#F6A555" stroke="white"/>
</svg>
