<svg width="35" height="30" viewBox="0 0 35 30" fill="none" xmlns="http://www.w3.org/2000/svg">
<path fill-rule="evenodd" clip-rule="evenodd" d="M27.9457 13.9505L30.4849 13.3862L31.4037 12.0496L32.5022 12.3229L32.3629 13.4374L33.3328 13.9346L33.4703 15.6821L34.285 18.2848L33.9006 20.5807L32.869 22.2417L31.7299 26.465L29.672 28.1296L28.54 28.5122L26.7819 27.4877L24.211 26.2075L23.1776 24.289L22.4529 20.8346L21.2168 18.5317L20.5979 15.8443L22.1778 9.31112L22.4864 8.54406L22.2748 7.90044L8.19095 11.7551L1.02118 10.348L1.73886 8.29543L2.93441 7.15102L12.9837 2.51165L18.7763 1.34608L24.7647 1.7252L24.7082 2.79202L24.3079 3.7072L24.1545 4.45486L24.4155 5.08261L24.4719 5.57811L24.5619 6.07537L24.4067 7.09106L24.0734 8.05385L23.8936 8.80151L24.1704 9.51214L24.7311 10.1293L25.4153 10.4608L25.8703 11.5594L25.5705 13.2734L27.9457 13.9505Z" fill="#F6A555" stroke="white"/>
</svg>
