<svg width="21" height="24" viewBox="0 0 21 24" fill="none" xmlns="http://www.w3.org/2000/svg">
<path fill-rule="evenodd" clip-rule="evenodd" d="M20.457 11.7754L20.0673 12.5583L18.8524 12.5336L17.9531 12.4931L16.8457 12.6765L16.031 12.6271L15.1758 13.0132L14.236 13.1261L14.1601 14.4768L14.7879 15.4149L14.8937 16.5382L14.4881 17.8201L12.7248 18.6454L11.3 17.4005L10.4359 16.6863L9.79408 15.8946L7.73096 18.1093L6.7911 19.8727L6.48957 21.7506L5.85123 22.2003L5.47388 21.2551L4.53401 20.2359L4.61337 21.144L4.80028 23.0996H4.19898L3.93448 22.4524L3.59591 22.299L2.7883 22.8386L2.02301 23.3218L1.49753 22.6729L0.860962 20.5057L1.1237 18.5554L1.725 16.0762L1.83786 14.6867L2.49206 13.4911L3.68761 12.0029L4.81086 10.2906L5.63258 4.60032L6.75407 3.20551L8.25115 2.11753L10.108 1.37516L12.1005 1.45274L13.647 2.44022L14.0861 4.55447L15.495 6.51355L17.2918 7.97008L18.7166 9.80925L20.3019 11.4298L20.457 11.7754Z" fill="#F6A555" stroke="white"/>
</svg>
