<svg width="34" height="28" viewBox="0 0 34 28" fill="none" xmlns="http://www.w3.org/2000/svg">
<path fill-rule="evenodd" clip-rule="evenodd" d="M26.4399 14.4051L28.5965 14.3786L30.4445 13.7121L32.0456 13.6892L32.6487 15.1334L32.4371 16.6128L31.3385 17.17L30.143 17.9653L30.1676 19.7604L30.8025 20.4728L29.4517 22.319L28.7023 23.6151L26.6603 24.83L24.4138 25.352L22.1039 26.5158L21.201 24.4403L19.2314 24.897L17.2793 25.5054L15.8951 26.3006L14.4562 26.5352L11.0794 26.4205L8.76766 23.3788L6.48942 22.6928L4.91828 21.6577L4.50389 18.8099L2.94156 16.5793L1.07947 14.2975L2.25915 11.7601L4.46333 11.9011L6.98668 13.4405L8.85759 12.804L10.5257 11.7883L10.6544 10.0778L11.1112 8.5014L14.6431 8.16284L16.4559 5.85109L17.5632 3.50231L19.1326 1.82008L21.5907 1.23112L24.4227 1.46212L25.7734 3.78974L26.2936 6.95495L27.1153 9.16618L27.1647 11.5926L26.4399 14.4051Z" fill="#F6A555" stroke="white"/>
</svg>
