<svg width="40" height="37" viewBox="0 0 40 37" fill="none" xmlns="http://www.w3.org/2000/svg">
<path fill-rule="evenodd" clip-rule="evenodd" d="M24.2831 7.41171L31.6045 6.08744L37.838 7.61449L37.9085 7.5951L38.0284 7.74146L38.5556 8.6725L38.2576 10.7815L38.0883 13.2801L37.5558 17.0343L36.7553 18.6231L35.4627 20.3723L34.2707 21.0159L33.7505 19.3125L33.2885 17.0925L32.2711 15.4297L31.176 15.1458L30.5218 17.0343L31.5975 17.2829L32.2393 18.0976L32.5479 19.2879L32.6184 20.6633L32.2711 21.9611L31.4635 22.2626L30.5624 22.3455L29.9329 22.975L30.0492 23.668L30.1498 25.4631L30.4707 27.3164L29.7371 28.5049L29.0706 29.6934L29.7266 30.6191L30.252 31.1499L30.1445 32.4618L28.524 32.9944L27.0004 33.9131L24.8139 36.0837L22.9624 36.015L22.9324 36.1155L22.615 35.8404L20.3773 35.0487L18.6616 33.347L18.1325 30.6685L16.3251 29.2596L12.2729 27.0254L8.87321 23.132L6.83125 21.5784L1.98205 20.8325L0.802368 18.4467L2.77026 14.4722L2.43523 10.6228L4.33259 9.08689L6.35868 7.90368L7.5701 7.87547L8.06736 6.92503L7.31088 5.67305L6.87886 4.31527L9.5327 2.25568L12.8584 1.09187L15.5845 0.679249L18.2542 1.23999L21.028 2.43731L21.7509 3.62757L21.7933 5.07527L21.989 6.36604L22.9659 7.06962L24.2831 7.41171Z" fill="#F6A555" stroke="white"/>
</svg>
