<svg width="36" height="21" viewBox="0 0 36 21" fill="none" xmlns="http://www.w3.org/2000/svg">
<path d="M34.4934 10.8458L33.2238 10.0117L32.3774 8.06676L32.3862 5.72327L27.7468 1.26024L23.7105 1.40483L20.1256 1.5318L19.7395 3.93347L19.914 5.74972L20.3337 6.74072L21.9542 6.56439L22.2416 5.70035L23.3032 5.98954L23.1357 6.81478L22.4585 7.16216L20.2014 7.84458L19.4344 9.1759L19.6918 10.5989L19.5102 12.4099L20.8027 13.0958L22.2134 13.8629L22.8676 14.9756L21.8237 16.5485L21.0143 18.3488L23.0016 19.8706L24.9237 17.4143L29.0499 17.9433L29.2774 18.6151L31.7584 17.8886L32.3456 17.4566L33.3789 16.6895L34.5004 14.5188L35.241 12.0748L34.4934 10.8458ZM17.9708 6.18879L17.5547 5.79557L17.2461 5.31065L16.9375 4.99148L16.2921 4.67055L15.8178 4.57709L15.3752 4.55241L14.9273 4.36726L14.4723 4.10804L14.0315 3.93524L13.1216 3.01653L12.0054 3.42916L11.4588 5.65274L9.85765 6.49914L8.12252 6.45682L5.56743 6.73543L2.00018 9.23762L1.3495 8.89906L0.88045 9.04189L0.578918 9.77721L0.788756 10.2939L1.65103 11.1138L1.82384 11.6516L1.32305 12.1489L2.17122 12.3623L2.75842 12.6285L3.2451 12.2459L3.5625 11.8262L4.04037 11.8879L4.23786 12.3711L4.10385 12.7202L4.19378 12.9248L4.45299 12.8348L4.74042 12.521L5.36288 12.916L5.69263 14.1256L6.00474 14.2032L6.72595 14.1203L7.49829 14.2984L10.9315 11.7028L11.4799 10.7329L12.4709 9.84069L14.3101 9.0366L15.1477 8.64161L15.756 8.74388L17.1315 8.41237L17.4013 8.05441L18.066 7.55715L18.4928 7.37905L18.297 6.85887L17.9708 6.18879Z" fill="#F6A555" stroke="white"/>
</svg>
