<svg width="153" height="142" viewBox="0 0 153 142" fill="none" xmlns="http://www.w3.org/2000/svg">
<path d="M69.7318 111.628L68.2911 110.2L68.046 109.387L67.6175 108.803L67.3671 108.105L67.1502 106.596L66.4202 104.757L65.4838 103.651L64.6392 103.074L63.7346 102.776L62.3504 102.917L61.8972 103.021L61.0508 103.43L60.4301 104.349L60.1145 105.552L60.051 106.754L60.1286 107.934L60.3596 108.971L60.9097 109.669L61.832 110.274L62.8582 110.558L63.6764 110.343L64.3571 110.526L64.5493 111.228L63.8175 111.787L63.8316 112.402L65.3111 112.923L66.5031 113.203L67.1943 113.52L67.5717 113.298L67.6492 112.741L67.9825 112.676L68.5856 113.065L69.2909 113.372L69.6736 113.482L70.0597 113.536L70.3278 113.281L69.8852 112.217L69.7318 111.628ZM75.7342 99.9108L75.3639 99.3395L74.3835 99.1702L72.7488 99.5564L71.1936 100.42L70.0844 101.888L69.5395 103.09L69.1745 103.651L68.8871 104.217L69.2327 104.57L69.6171 104.598L69.9945 104.876L70.162 105.709L70.1479 106.693L70.661 107.29L71.0842 106.992L71.3135 105.968L72.0453 104.984L74.1207 104.016L74.5175 103.43L75.1911 103.263L76.8045 103.758L77.3812 103.661L77.3106 103.08L76.7851 102.314L76.1838 101.639L75.4538 101.193L75.3886 100.964L75.7994 100.54L75.7342 99.9108ZM62.4985 126.479L61.6979 125.294L61.832 124.571L62.5814 123.924L62.3962 122.993L61.0631 122.309L60.3913 122.302L60.3525 122.626L59.6983 123.254L59.8517 123.691L60.3719 124.174L60.1991 125.4L59.6983 127.594L59.8711 128.87L60.2749 128.96L60.654 129.262L60.7951 129.703L61.1989 129.942L61.973 129.731L62.3698 128.983V128.024L62.4862 127.46L62.8318 127.403L63.0822 127.118L62.8124 126.654L62.4985 126.479ZM57.7833 120.302L57.3742 119.995L56.5278 119.555L54.8879 119.276L54.2778 118.946L53.6571 118.745L53.3943 118.973L53.7981 119.636L53.8493 119.907L53.6641 120.114L53.3749 120.256L53.3114 120.466L53.4649 120.694L53.4331 120.985L53.2021 121.41L52.7983 122.549L52.8759 122.866L53.2462 122.944L53.5795 123.064L53.7347 123.446L54.3554 124.028L55.5527 124.354L55.9512 124.019L55.5668 123.339L56.2016 123.206L57.3478 123.145L57.6228 122.06L58.1677 121.6L58.1042 120.768L57.7833 120.302ZM76.8116 111.694L77.2083 111.344L77.9384 111.209L78.619 111.341L79.111 110.798L79.1886 110.133L79.3103 109.809L79.7652 109.272L79.9186 108.576L79.2256 108.167L78.1112 107.897L77.233 107.804L76.8998 107.865L76.5682 107.888L75.9969 107.737L75.5367 107.384L74.7344 107.585L73.6711 108.454L72.8 108.819L72.0823 108.482L71.4616 108.385L71.1724 108.525L70.8268 108.726L70.0386 108.959L69.2327 109.064L69.3403 109.387L71.0842 110.158L71.384 110.355L71.6855 110.51L72.442 110.517L73.3836 110.186L74.1913 110.064L74.7996 110.325L75.2228 110.902L75.3833 111.635L75.7677 112.185L76.4783 112.037L76.8116 111.694ZM37.1733 89.7786L37.1028 88.9516L35.3218 90.0749L34.9621 90.1913L34.4366 89.7681L34.0592 89.1103L33.8282 88.509L33.636 88.2392L32.7967 87.7949L31.6699 86.8973L30.3686 86.1849L29.0937 86.2784L28.5682 87.0719L30.5925 88.6695L31.1956 89.8651L30.7159 91.3181L29.5997 92.0534L28.3513 91.9246L27.4291 90.7908L27.2104 92.1433L26.6408 92.5665L25.8914 92.6952L25.045 93.1607L24.315 93.9772L23.853 94.7125L23.1424 96.7756L20.9452 96.9396L18.7022 99.5194L17.7218 102.706L19.3741 104.66V102.641L21.6435 104.069L22.0667 104.66L21.841 105.148L21.2591 105.73L20.8165 106.43L20.9893 107.259L21.9045 107.491L25.2178 107.213L26.1224 106.903L33.6166 102.812L33.9376 101.283V100.683L34.5583 101.073L35.9037 102.346L36.0395 102.641L36.8206 102.113L37.4484 101.103L38.9984 97.779L39.4216 96.3577L39.6332 94.8888L39.5115 93.5751L37.1733 89.7786ZM56.7447 125.016L56.2968 124.889L55.4116 124.873L54.7592 125.074L54.2989 125.016L52.7419 124.019H51.5428L50.1463 124.996L49.4533 126.409L49.5115 127.849L50.3508 128.964L51.8567 129.029L53.0417 128.313L53.8246 127.606L54.7027 127.01L54.9708 126.499L55.394 126.084L56.1311 126.065L56.847 126.46L57.1432 126.576L57.2825 126.204L57.5646 126.25L57.8927 126.548L58.0848 126.127L57.4307 125.307L56.7447 125.016ZM81.1812 122.249L80.3859 121.112L79.0405 120.768L77.9207 121.321L77.3618 121.856L77.0549 122.575L76.9262 123.483L76.4395 124.469L76.7605 125.933L77.0549 126.107L77.323 125.631L77.8432 125.569L78.5538 126.213L79.4196 126.659L80.5904 126.56L81.5144 126.061L82.0135 125.174L82.2057 124.663L82.4102 123.471L81.9359 122.937L81.1812 122.249ZM17.7994 84.843L17.6513 84.3564L17.4714 84.1783L17.415 83.3442L16.4469 82.7993L15.8756 82.2033L14.9163 81.4292L14.3203 81.8771L14.8194 83.4853L15.6076 84.7496L15.992 85.7071L15.6023 86.6399L14.7047 87.3294L13.5638 87.3646L12.4741 87.5321L12.0527 88.0365L13.8019 88.4262L13.8777 88.7524L13.4104 89.1103L13.0119 89.5106L12.5323 89.5353L12.0774 89.694L12.3595 90.1842L13.2694 90.447L14.1281 90.3165L15.6781 89.3942L16.3376 88.7683L16.9724 88.2992L17.415 87.8196L17.4855 86.8973L17.7289 85.8358L17.7994 84.843ZM85.6759 31.0803L80.8179 30.3045L76.5295 27.73L74.3729 22.9883L76.0745 21.3784L78.8976 22.1296L80.9643 21.6588L83.1191 21.0099L87.1801 22.5369L88.7741 26.9435L85.6759 31.0803ZM151.491 49.2093L151.5 47.423L150.442 44.8151L145.535 39.4668L144.69 37.6929L144.006 35.6598L142.249 33.8135L140.311 32.4011L139.246 30.4861L138.911 25.3671L138.123 22.9002L136.504 20.9887L136.926 18.885L132.436 15.2614L127.398 13.4363L124.542 15.0304L122.25 17.5026L119.783 17.8464L117.171 17.8676L114.316 18.2502L111.419 18.1991L110.075 17.4126L108.88 16.4887L107.497 16.8431L105.861 16.8202L103.486 17.2134L101.223 18.5694L98.2944 18.1339L96.3988 16.1131L96.5046 12.9196L94.9018 11.1087L94.4221 9.31712L95.1204 6.53102L93.5352 4.11171L91.2164 4.23868L90.6468 5.23145L89.8727 5.97557L89.3684 7.254L89.1815 8.63116L86.748 8.66115L83.0556 3.6497L80.6469 1.67477L79.2714 1.08934L77.8396 0.988831L76.5295 2.54585L73.8598 2.28313L71.883 4.06058L71.876 5.36722L71.9483 6.67386L71.2253 7.77419L70.2325 8.50423L70.289 9.53578L70.4424 10.5215L69.7847 11.8881L68.7425 12.7944L67.457 13.4151L66.1063 13.8084L64.9672 14.5013L63.9092 15.2843L61.273 15.6793L58.7761 16.5874L56.4326 17.1746L54.4718 16.5151L54.5864 13.8983L55.0889 11.3009L55.5456 7.76891L53.2744 7.15701L45.6268 9.29419L43.9992 9.81967L43.9869 9.8232L45.4945 11.5407L45.6868 12.2478L44.9832 12.2936L43.5919 11.8704L42.4387 10.3698L41.9784 9.89197L40.2486 12.5352L39.5626 14.02L39.2929 15.5223L39.4269 16.1889L39.679 16.799L39.806 17.4303L39.5362 18.1603L39.0248 18.7175L38.5187 19.109L38.0567 19.6186L37.6723 20.4897L38.2878 20.6114L38.5769 20.8036L38.8256 21.024L39.2929 21.2056L37.8645 21.553L36.2299 21.6447L34.7893 21.9762L33.9129 23.0624L36.1541 23.036L37.198 22.8667L38.2119 22.4682L38.0567 23.7995L38.4605 24.5648L39.2929 25.1537L39.12 26.0442L38.7497 26.5644L38.383 26.9594L38.2119 27.4302L38.8062 28.8215L41.3877 31.8439L42.1953 34.004L42.7155 34.533L43.3433 34.8857L44.8227 35.2577L45.2071 35.8731L45.2459 37.5889L45.0396 39.1142L43.0541 43.6177L42.2147 42.7519L41.6504 41.7715L41.5235 40.7153L41.9784 39.6185L41.3824 39.2799L40.0564 39.2305L39.2929 38.9625L38.3512 38.3982L38.0638 38.0861L37.9862 37.5395L37.6723 36.2734L37.429 36.1077L37.064 36.2452H36.7501L36.5949 35.6739L36.6919 35.1166L37.0446 34.2173L37.2562 32.4381L37.1539 31.5141L36.5949 30.4173L35.9619 32.618L35.4047 33.7236L34.4049 34.3655L33.7771 32.8419L32.3488 32.1084L30.7406 32.3253L29.6068 33.6442L29.8889 35.2436L31.9132 37.9362L31.1762 38.9625L32.2906 40.4261L33.405 40.3873L33.9499 39.1494L33.3274 36.9893L34.8334 37.506L36.2176 38.7756L38.4605 41.8844L39.0442 43.8999L36.8471 46.0847L37.0834 48.1495L35.1173 47.7316L34.2321 47.684L33.3274 48.1495L33.7136 49.0171L34.2003 49.733L34.7893 50.3308L35.4823 50.8281L35.1543 50.9691L34.4049 51.484L35.3923 52.1365L36.7695 52.5861L38.1908 52.4892L39.2929 51.484L39.2682 50.5847L38.8838 49.4826L38.7674 48.5463L39.5362 48.1495L40.1322 47.9344L40.5554 47.4566L41.0809 47.0016L41.9784 46.8376L43.9446 47.3049L43.4826 48.1495L41.9961 49.1705L40.901 50.1774L40.7476 51.7574L41.2149 53.6371L42.0737 55.2417L43.0541 56.0158L42.0349 56.9134L41.7668 57.6205L41.9784 59.0541L41.9467 59.7982L41.8109 60.4524L41.4847 61.1454L40.901 62.0271L39.2929 63.6353L38.7286 64.5875L38.9984 65.6049L39.8254 66.0264L41.5235 65.4638L42.6027 65.4833L42.7331 64.494L43.3997 64.1784L45.4945 64.6439L46.5332 64.3212L47.2244 63.7129L47.9421 63.3937L49.0124 63.9386L48.6862 64.4464L48.263 65.4462L47.9421 65.9576L48.4358 66.3314V66.5536L49.9999 66.4125L50.8181 65.2981L51.7033 62.0271L52.6449 60.1385L52.7789 60.0098L52.6643 59.1423L52.1459 57.527L52.2411 56.73L53.1069 55.5344L54.2778 54.9843L55.3622 55.3123L55.9953 56.73L55.9706 57.7263L55.625 58.3117L55.2071 58.779L54.9196 59.4138V60.4119L55.1242 61.0678L55.2265 61.7009L54.9196 62.6284L59.0071 62.2616L60.7951 62.5896L61.9677 63.9386L61.146 63.898L60.4936 64.0338L59.2751 64.6439L59.8341 65.8624L57.9879 65.7266L54.3818 64.6439L52.4527 65.1253L51.5111 66.3579L51.3577 68.0419L51.7033 69.8863L51.3383 69.747L51.1267 69.5777L50.9345 69.3838L50.6276 69.1739L49.4162 69.4085L45.8155 66.7529L42.8231 68.0912L40.4778 67.7245L39.374 68.1759L38.249 69.5883L38.4888 70.4982L40.3085 71.0995L42.2905 70.5617L43.897 71.6056L46.2246 71.4539L48.1854 71.8472L49.6137 72.5261L52.19 75.8288L53.8951 77.0755L53.3168 77.7896L55.6814 79.8686L57.0268 80.7221L58.6861 81.0025L57.0392 81.4239L54.7697 80.6992L52.8935 79.6729L51.437 78.8335L50.4584 79.0469L52.1071 81.2282L51.765 81.6496L50.9309 81.1012L49.8341 80.3112L48.9807 79.4842L47.5682 78.9235L46.542 78.2534L46.0659 77.6063L45.2459 77.0755L45.059 76.4989L45.0907 76.1303L45.0731 75.7442L45.2794 74.4992L44.8509 73.734L41.5517 73.0127L39.3969 73.2261L39.8518 74.8995L39.2523 76.2608L39.4956 78.6519L39.9894 80.44L40.8076 80.3659L41.3101 79.0117L42.3487 78.8212L42.0701 81.0201L43.0735 82.0234L43.837 83.2172L45.4558 83.5699L45.9248 83.8044L46.8082 83.6722L46.1681 85.3332L45.2653 85.4161L43.5919 84.2594L39.6896 83.6052L38.711 83.018L37.0834 78.4438L36.8277 77.3911L36.6919 76.4142L36.9229 75.455L37.6723 74.4675L35.2707 70.865L34.7522 69.7223L34.2902 69.4085L33.6748 69.2321L33.0859 69.1739L32.444 69.486L32.3294 70.2337L32.3929 71.1224L32.31 71.8472L31.483 73.9791L30.797 77.0455L30.9328 79.8016L32.5657 81.0025L34.6746 82.0376L35.0009 83.018L34.4295 83.4764L33.6431 83.4641L33.3274 83.018L33.0224 83.547L32.7015 83.6757L32.5657 83.9525L32.8355 84.9136L33.04 85.0106L34.6746 86.5746L35.1737 86.7686L35.8085 86.6399L36.3657 86.3172L36.5949 85.9504L36.833 85.3368L37.3073 85.8005L37.697 86.5711L37.6723 86.8744L39.5432 87.7949L40.2168 88.6748L40.3632 90.1913L41.5235 89.7328L42.4457 89.5688L44.1297 89.5388L44.8985 89.6711L45.5721 89.694L46.2704 89.5388L46.5402 88.6748L46.8664 88.0206L47.3461 87.585L47.8786 87.6009L48.8978 88.2304L49.5502 88.2392L50.0493 87.9007L50.7617 87.0137L51.1143 86.8744L52.0753 87.4069L52.0489 88.301L51.2801 89.3219L50.0387 90.1913L50.781 90.447L51.3965 90.8455L51.8832 91.4133L52.2411 92.1503L50.2803 92.1962L48.1854 92.6018L46.616 93.7603L46.2704 96.065L47.533 95.6471L47.674 96.2748L47.3796 97.4527L47.3461 98.6747L47.168 98.8105L46.937 99.2813L47.0516 99.798L47.898 100.033L49.0706 100.172L49.6472 100.373L50.0387 100.683L50.3385 101.658L50.1269 102.632L49.0124 104.66L48.6739 104.892L48.3194 104.776L48.0514 104.827L47.898 106.328L47.764 106.709L47.3461 107.259V107.853L49.4039 107.749L50.3966 107.946L51.1143 108.564L51.2607 109.646L50.5183 111.939L50.6276 113.062L51.5375 113.249L55.163 112.053L57.085 112.466V111.364L57.2455 110.44L59.1605 104L59.4744 103.381L60.3525 102.641L62.6836 102.05L63.299 101.635L63.7029 100.692L63.7152 99.9814L63.9268 99.5423L64.9654 99.3871L65.3498 99.4912L66.0799 99.9338L66.5613 100.033L66.8169 99.8227L66.9069 99.3554L66.8293 98.8881L66.5613 98.6747L65.3886 98.211L66.5225 97.1653L69.5395 95.4125L67.778 93.1696L67.4641 92.004L69.8922 91.1911L69.8658 90.3852L69.3667 89.2355L69.0458 87.913L69.3085 87.0014L69.968 85.9663L70.8268 85.1569L71.6785 84.9136L72.576 85.5854L73.0945 86.8744L73.1914 88.345L72.7559 89.5388L73.0574 91.4133L72.7294 96.2519L73.3448 98.0805L74.0361 98.5019L77.0602 99.3871L79.2644 100.96L80.2836 101.283L79.841 100.167L79.8022 99.142L80.1302 98.2057L80.8214 97.3699L82.9181 98.4191L83.6534 97.7631L83.5123 93.8149L87.8554 89.5388L87.2665 88.2939L87.6315 87.2729L88.3615 86.4195L88.8817 85.633L89.0281 84.5168L88.9893 83.4606L89.125 82.6706L89.721 82.3638L90.6821 82.1116L91.6819 81.5279L93.2389 80.3395L96.1202 78.6537L96.755 78.1159L98.1781 76.2361L99.0421 75.4409L99.9714 75.1129L101.945 75.522L102.906 75.5731L104.039 75.1129L105.142 73.7639L106.73 69.6765L107.845 67.922L109.786 71.0607L111.209 72.2492L112.927 71.521L114.418 70.3554L114.976 71.126L115.399 72.8329L116.496 74.4675L115.879 75.4638L114.803 77.7773L114.292 78.4438L113.073 78.8988L112.17 78.6026L111.498 77.7297L111.024 76.4795L111.44 75.5696L111.304 74.8202L110.767 74.2365L109.947 73.8045L107.679 76.3173L107.256 77.0755L107.326 78.5267L107.794 79.2638L108.402 79.8968L108.864 81.0025L108.89 83.8273L107.737 85.4232L105.808 86.1268L103.502 86.2784L104.655 83.4853L105.039 81.9353L105.115 80.3395L103.969 80.9002L103.406 81.6091L102.426 83.6722L100.837 85.7776L100.273 86.2784L98.5237 87.317L98.0229 88.1352L98.1199 89.5388L98.8499 90.9107L99.9079 91.4662L101.144 91.7078L102.426 92.1503L102.202 91.7695L101.886 90.7908L105.008 89.158L105.91 88.9516L108.864 92.1503L109.973 94.4321L113.189 98.6871L115.367 98.6747L114.362 97.5797L114.124 95.9151L116.392 94.1923L117.834 94.8536L119.16 92.9685L122.895 89.5388L121.257 88.1423L118.264 88.9234L117.598 88.4808L116.496 88.2392L115.552 86.2555L115.367 85.9504L115.822 85.2204L116.898 84.4498L118.166 83.8661L119.185 83.6722L120.338 84.0442L123.919 86.2784L124.893 86.0333L126.43 86.1074L127.242 85.4179L127.963 84.6967L127.739 82.7041L127.302 81.6443L123.919 80.3395L124.508 80.2072L125.893 80.216L126.7 80.3395L125.016 77.9184L122.556 76.3366L120.282 74.2947L119.185 70.4841L119.403 70.2267L119.827 70.1173L119.992 69.7823L119.435 68.8689L118.647 68.5303L117.168 69.1263L116.496 68.5762L116.783 67.2713L118.474 66.3191L121.819 65.2505V64.6439L120.146 64.1537L118.114 63.265L117.078 62.4097L118.36 62.0271L121.761 62.1135L123.323 61.9195L126.009 60.9691L126.413 60.9232L126.681 60.7363L127.199 60.0098L128.546 56.5889L128.814 56.3756L128.987 55.9753L129.354 56.0987L129.719 56.5184L129.89 57.058L129.814 57.5499L129.467 58.4863L129.398 59.0541L129.603 59.9904L130.795 62.505L130.564 62.8717L130.428 63.4483L130.467 63.9386L130.853 64.3529L131.313 64.4217L131.756 64.4341L132.082 64.6439L133.33 67.3489L133.965 68.2482L134.33 69.8669L133.588 71.7537L132.562 73.7498L132.082 75.7759L132.466 77.9184L133.369 79.3326L134.773 80.1067L136.656 80.3395L137.945 81.6937L138.758 82.1451L139.116 81.3516L138.539 77.0755L138.079 75.7301L137.464 74.4675L137.855 74.3652L137.963 74.1907L138.079 74.1624L138.539 74.4675L139.982 71.3023L141.736 71.6761L143.928 72.7747L146.697 71.8472L147.349 70.7416L148.254 65.9576L149.033 63.2456L149.29 61.9037L149.379 60.0098L147.901 60.8016L146.556 60.7169L145.113 60.4348L143.422 60.6623L140.982 62.9546L140.001 63.5718L139.174 63.1733L138.289 62.0271L137.04 61.223L135.644 59.3115L134.425 57.1162L133.695 55.4181L133.607 53.8134L134.029 51.8896L134.887 50.6641L136.118 51.1561L137.605 54.1873L138.79 55.2065L140.444 54.4694L143.422 52.0853L144.152 51.2425L144.466 50.6359L145.037 48.8655L144.863 48.3612L144.729 47.2132L144.94 46.4726L145.843 47.192L146.305 48.1213L146.497 48.8531L146.921 49.3433L147.982 49.5214L151.174 49.4914L151.69 49.6343L151.491 49.2093ZM128.462 96.2872L127.739 96.3242L127.026 97.0331L126.661 97.1248L126.642 96.8779L125.54 96.5975L124.951 96.2554L124.394 96.0156L124.009 96.2325L124.143 96.6592L124.194 97.1953L123.914 97.9112L124.438 98.3027L125.297 98.8511L125.087 99.232L125.452 99.7239L126.245 99.9814L126.778 100.54L126.81 101.357L127.257 101.611L128.513 101.228L129.948 100.295L130.544 99.6552V99.0926L130.192 98.144L128.462 96.2872ZM149.957 92.7587L149.322 92.6406L149.285 92.2985L149.424 91.6302L148.232 89.3061L147.208 88.5425L145.767 88.7383L144.441 89.3713L144.018 90.1877L144.575 90.8613L145.222 91.2105L145.607 91.8012L145.959 92.6141L146.728 93.2084L147.874 93.5928L148.604 94.0019L148.862 94.3863L149.028 94.552L149.67 94.5273L150.648 94.187L150.821 93.5928L150.477 93.0461L149.957 92.7587ZM95.5242 108.225L95.0446 107.61L94.7766 107.176L94.4098 106.853L93.6216 106.941L92.5459 107.283L91.9305 107.012L91.636 106.151L91.1229 105.381L90.5657 104.838L90.3171 104.753L90.3805 105L89.5994 105.652L88.8694 106.538L88.4144 106.848L87.8307 106.964L87.6456 107.144L87.8695 107.294L88.3809 107.47L89.7017 107.594L90.2271 107.913L90.4123 108.393L90.1813 108.773L91.9058 109.13L92.1862 109.511L91.6872 109.844L91.2957 110.436L91.3733 111.279L92.1809 110.914L93.5722 109.821L94.1418 109.25L93.6604 108.974L93.4558 108.715L94.0201 108.495L94.8013 108.668L95.4678 109.006L95.9474 108.904L95.794 108.458L95.5242 108.225ZM105.679 94.7866L104.399 94.6896L101.939 94.9823L99.363 95.4584L98.1075 95.9715L97.0178 96.7756L97.7549 97.2729L98.0617 97.7014L97.9859 98.144L97.5556 98.6747V99.3871L99.4406 100.651L100.363 101.103L101.618 101.283L104.866 100.683L106.321 100.085L107.358 98.6324L107.614 96.8585L106.757 95.3067L105.679 94.7866ZM113.112 139.547L112.65 139.138L111.65 137.475L111.516 136.495L111.786 135.613L111.594 135.206L111.477 135.243L111.267 135.488L110.901 135.606L110.613 135.509L110.363 135.59L110.305 135.985L110.343 136.426L110.229 136.807L110.421 137.456L110.664 137.758L110.959 137.967L111.132 138.761L111.401 139.41L111.594 139.706L112.669 139.956L113.784 140.498L113.881 140.031L113.674 139.706L113.112 139.547ZM28.9914 53.5613L29.2859 53.3126L29.5415 52.3199L29.5239 51.9072L29.0619 51.7186H27.7165L27.1011 52.0554L26.9406 52.9688L27.3321 53.8363L28.2931 53.8663L28.9914 53.5613ZM16.946 70.0556L17.6654 71.3728L17.7994 72.191L18.3566 72.6001L18.9456 72.549L19.2207 72.4167L19.6439 72.0394L20.4903 72.0499L21.2203 73.1133L22.1425 74.0302L23.1424 73.9332L23.5973 73.018L23.5656 71.9918L23.2958 71.1542L23.2199 70.5194L23.2764 70.0397L22.9942 69.5125L22.4688 69.0329L21.6999 68.846L20.7654 68.7842L20.0724 68.4333L19.6051 67.922L18.8698 67.594L17.8752 67.4406L17.0359 67.527L16.454 67.8285L15.8315 67.8232L15.0698 67.6222L15.396 68.4175L16.946 70.0556ZM22.8726 65.4515L22.6804 65.0548L22.1108 64.2754L21.3543 63.9386L20.7601 64.4305L19.6121 64.9313L17.6513 65.254L16.8754 65.9047L17.8435 66.476L19.1642 66.9662L20.1888 67.8479L21.1039 68.3699L22.0473 68.1212L22.5217 67.6134L22.3541 66.3191L22.6239 65.7019L22.8726 65.4515ZM32.6292 56.9769L31.6435 57.2819L31.5659 57.6857L31.3102 57.9538L31.028 58.3117L29.4269 58.8971L28.1785 58.98L27.7553 59.4826L28.2349 60.1068L29.1712 60.4277L30.3368 60.2391L31.3684 59.7312L33.6942 59.3539L34.0204 59.5302L36.2176 60.7398L36.4239 61.1207L36.1735 61.6727L35.6745 62.2369L36.5191 62.5579L38.0638 61.1295L37.9033 59.0964L36.4115 58.5692L35.2953 58.5568L34.7893 58.3981L34.6817 57.9485L34.6359 57.3824L34.784 56.9363L35.9813 56.1393L36.6672 56.0493L36.7695 55.4833L35.7697 54.4764L34.3661 53.7658L33.0012 53.4378L32.1442 53.8822L32.407 54.8326L33.0224 55.6773L32.9836 56.3791L32.6292 56.9769ZM16.5757 111.752L16.0502 111.484L14.9163 111.66L12.2061 111.089L11.6154 111.48L11.5783 111.951L11.2451 112.402L11.2962 112.923L11.8464 113.714L13.4739 114.391L13.9729 114.317L14.1087 113.847L14.3768 113.834L14.7047 114.346L15.0504 114.51L15.4929 114.141L16.2547 114.042L16.6268 113.497L16.4981 112.81L16.5757 111.752ZM17.7218 59.6148L16.9724 59.1899L16.0308 59.2868L14.8775 59.8688L14.6395 60.6305L15.1844 61.6303L15.8439 62.542L17.0235 63.8857L16.9918 64.2683L17.1646 64.8326L17.8752 64.8908L18.7146 64.4164L18.9703 63.503L18.9526 62.4344L19.4446 61.8719L20.2205 61.9072L20.7777 61.558L20.9699 60.6534L20.5855 59.1617L21.6435 58.4828L21.5606 57.8885L21.1815 57.3436L20.7918 57.125L20.291 57.1744L19.2595 57.155L18.51 57.8885L18.6635 59.0135L18.4518 59.5919L17.7218 59.6148ZM23.9112 41.7803L23.8336 41.2848L23.6343 40.8563L23.3011 40.4049L22.6028 40.2057L21.5977 40.2885L20.9117 39.9711L20.4056 40.0487L19.7973 40.4525L19.6509 40.8881L19.9913 40.9886L20.3422 40.9251L20.5661 41.0521L19.9965 41.4859L20.1059 41.6975L20.4956 41.6851L20.7971 41.8385L20.9117 42.2564L21.2908 42.297L21.714 42.0854L22.0332 42.3041L22.7385 43.0852L23.1618 43.2474L23.5585 43.0235L23.8918 42.7184L23.9112 41.7803ZM22.0844 36.4568L22.9308 38.4335L23.354 38.9537L23.8018 39.1812L24.1422 39.4898L24.4807 39.5603L25.172 39.6273L25.6216 40.0187L27.6389 40.3591L28.1785 40.5231L28.0304 40.9921L28.018 41.835L28.3319 42.401L28.7163 42.8948L29.6315 43.1064L29.836 43.4079L30.1446 43.1557L30.4532 42.2265L30.3121 41.4911L29.9136 40.9498L29.6773 40.0981L29.21 39.4316L28.3901 39.3751L27.6583 39.0436L26.7943 38.1514V37.6382L27.1011 37.282L27.8258 37.2362L28.3689 36.6843L28.1714 36.0583L27.6847 36.1993L27.3003 36.2135L27.1328 35.7903L26.6461 35.5469L25.8914 35.9472L25.2249 36.1782L24.4878 35.6862L23.5656 35.3441L22.5657 35.6827L22.0844 36.4568ZM9.93841 65.9453L9.64922 65.6649L9.27187 65.6014L8.74639 65.6719L6.17013 66.6576L4.76122 66.9662L3.69087 66.5536L2.72984 66.9274L1.86581 67.4899L1.23806 68.331L1 69.5248L1.13578 70.7874L1.54488 71.8048L2.22377 72.4467L3.14599 72.5578L4.08234 72.1328L4.76827 71.2864L5.18971 70.1544L5.35018 68.8689L5.78572 68.6185L6.77321 68.8301L7.84884 68.823L8.5295 67.922L8.92624 68.1565L9.82203 68.4086L10.187 68.5762L10.1553 66.5413L9.93841 65.9453ZM9.66862 73.875L8.72699 73.0198L8.05339 71.7855L7.75892 71.5897L7.27223 71.8401L5.84392 73.8045L3.51806 74.7391L2.98024 75.4797L3.69087 77.0755L4.03825 76.9485L5.27435 77.474L6.41348 78.1441L6.42053 78.4438L7.22815 78.5179L7.77302 78.4703L8.32319 78.0665L9.51521 76.4583L9.84142 75.7547L10.0142 75.0036L9.91196 74.27L9.66862 73.875ZM12.5905 86.7845L13.4157 86.7298L14.1281 86.4882L14.345 85.3668L13.6855 84.0266L12.8462 82.7993L11.8411 80.5916L11.1798 81.4345L10.8994 83.279L11.2063 86.5976L11.8411 87.1301L12.5905 86.7845ZM12.065 58.1019L12.7315 58.3417L13.2429 58.7878L13.8971 59.0382L15.031 58.6979L15.9479 57.9044L16.5492 56.7582L16.7943 55.4181L16.6074 54.0356L15.9867 52.9547L15.1086 52.3481L14.3397 52.5385L13.9994 53.8134L13.7049 54.3988L13.0507 54.4112L12.3013 54.2031L11.797 54.1714L10.7196 55.1571L9.30361 57.4212L8.5295 58.1019V58.6979L9.49581 58.6785L12.065 58.1019ZM14.5513 39.8424L14.7418 40.054L15.031 40.2691L15.7804 40.1475L17.8752 40.7065L18.2984 40.5971L18.5876 39.8142L19.2595 38.8056L20.1429 37.9398L20.9893 37.5889L19.9331 35.8766L19.5875 34.8857L19.6509 33.9246L20.2011 33.1135L22.5975 31.7151L21.3931 31.3889L19.7779 31.7733L18.3566 32.6973L17.7606 34.004L17.3762 34.6247L16.5104 35.0461L15.5758 35.36L15.031 35.6739L14.6148 36.5661L13.9994 39.6185L14.345 39.6767L14.5513 39.8424Z" fill="#F6A555" stroke="white"/>
</svg>
