<svg width="134" height="85" viewBox="0 0 134 85" fill="none" xmlns="http://www.w3.org/2000/svg">
<path d="M129.408 13.0974L128.399 14.159L127.389 15.083L126.234 14.457L125.087 13.3602L122.181 14.6739L119.651 16.2239L118.39 15.8624L117.657 14.9454L114.133 13.7869L112.954 12.385L111.621 11.5986L111.108 12.2845L110.473 12.4397L109.723 11.7538L109.05 10.9409L107.186 12.8135L105.273 14.494L102.938 15.1447L100.619 15.2523L98.9193 15.6684L94.3628 15.0706L94.0366 14.2895L94.5903 13.1768L94.1177 12.2069L93.1091 11.9513L90.4975 10.6358L86.9585 4.25072L84.444 2.0148L83.125 3.36729L82.0687 5.01602L80.4165 5.35811L79.3021 5.85714L78.1629 6.25389L73.8251 7.1003L71.6209 7.95552L69.2933 8.39107L67.6181 5.77955L68.3164 1.47874L65.4122 0.896843L57.2602 3.47133L52.8342 4.42177L49.0659 4.8344L45.5234 9.20926L50.1363 7.78271L49.997 9.18987L48.44 10.3061L44.7563 11.7749L41.8538 13.9809L40.2016 14.829L38.8491 14.4323L37.5795 15.1958L33.6561 15.4286L29.7749 15.9117L22.6404 16.6823L22.9807 19.6165L26.444 19.0717L28.7927 19.8775L29.521 20.5141L29.759 22.8153L29.7943 24.4869L33.5573 24.7867L37.3697 25.0371L39.3093 24.9401L45.0949 22.6001L45.3453 22.4026L46.2746 22.7465L47.1139 23.4783L47.523 24.1907L47.1774 24.5063L46.0947 24.6932L45.7173 25.1869L45.5375 25.9011L45.0579 26.7757L44.3455 27.146L43.3844 27.2254L38.9902 26.9415L38.2725 27.1072L37.6183 27.6451L36.9659 28.5461L36.7543 29.3837L37.4843 29.7558L38.8738 30.7979L40.5842 31.9653L42.0884 32.7129L42.8131 33.2419L43.8658 34.0813L43.7494 35.2222L43.4814 36.319L43.1534 37.1107L42.3141 35.6559L41.0586 35.3403L39.3076 33.9878L36.5426 33.6457L33.7195 33.9314L33.2452 34.344L32.3494 34.9118L31.1397 35.6313L30.8047 38.5267L28.6023 41.6055L25.7051 43.2048L23.3422 44.5838L21.8522 46.2925L20.244 47.883L18.3996 48.8017L18.3361 49.8421L18.098 52.4483L21.9897 54.8764L33.1588 53.0496L34.3508 53.7338L35.0808 55.3772L36.1071 58.9921L35.0491 58.6376L33.6084 56.8531L32.2031 55.2749L30.6354 55.6788L29.5263 57.2799L28.3731 58.2074L25.8709 58.3432L22.9455 58.9445L20.3763 59.8667L18.5777 62.4588L16.444 67.4473L15.0933 70.2722L14.5167 72.5557L14.8993 73.5855L15.9873 74.8216L15.9996 74.8181L17.6272 74.2944L25.2749 72.1572L27.5443 72.7673L27.0893 76.2993L26.585 78.8985L26.4722 81.5135L28.433 82.173L30.7747 81.5858L33.2734 80.6795L35.9096 80.2845L36.9676 79.5016L38.1067 78.8086L39.4575 78.4153L40.7429 77.7946L41.7851 76.8883L42.4428 75.5217L42.2894 74.5342L42.2312 73.5027L43.224 72.7726L43.9487 71.6741L43.8764 70.3674L43.8835 69.0608L45.8602 67.2833L48.5299 67.5443L49.84 65.989L51.2719 66.0896L52.6473 66.6732L55.0543 68.6482L58.7485 73.6614L61.1819 73.6314L61.3688 72.2525L61.8731 70.9758L62.6472 70.2317L63.215 69.2371L65.5338 69.1119L67.1208 71.5312L66.4226 74.3173L66.9022 76.1089L68.5051 77.9199L68.3993 81.1133L70.2949 83.1323L73.2238 83.5679L75.4862 82.2136L77.8614 81.8204L79.4978 81.8433L80.8802 81.4889L82.0758 82.4129L83.4195 83.1975L86.3167 83.2504L89.1715 82.8678L91.783 82.8466L94.25 82.5028L96.5423 80.0306L99.3989 78.4365L104.435 80.2598L108.926 83.8853L110.579 82.196L110.693 79.8154L111.213 77.2339L114.5 73.2964L114.973 70.646L113.841 69.8913L113.037 68.0645L113.174 65.5923L112.303 63.3158L112.157 62.0938L111.864 61.0252L109.847 60.1718L109.928 57.7366L111.026 55.4918L111.702 52.4747L112.62 49.5546L113.841 47.2693L114.834 45.0969L115.063 42.1168L115.941 39.5759L117.74 37.9783L119.439 36.1991L120.921 32.9915L121.693 32.4943L122.767 32.6089L124.703 32.0129L128.618 29.9304L129.381 27.8902L132.262 24.7955L132.629 18.6044L129.408 13.0974ZM5.44425 50.7678L5.15683 51.087L4.56081 51.5719L3.66857 51.4097L3.33 51.3938L3.46402 51.9263L3.18188 52.0551L2.70754 52.1344L2.41307 52.5523L1.97752 52.7974L1.78531 53.0249L2.17677 53.2788L2.29139 53.434L1.46614 53.8696L1.31097 54.4832L1.56137 55.1215L1.90698 55.4848L2.36193 55.3807L2.61937 55.1445L3.23302 54.6684L4.20815 53.5804L5.65586 52.3284L5.95034 51.6072L5.78458 51.027L5.44425 50.7678Z" fill="#F6A555" stroke="white"/>
</svg>
