<svg width="65" height="37" viewBox="0 0 65 37" fill="none" xmlns="http://www.w3.org/2000/svg">
<path fill-rule="evenodd" clip-rule="evenodd" d="M63.07 9.46236L63.666 10.6879L63.301 11.1076L62.5375 11.3297L61.9944 11.9822L62.0314 12.5306L62.5322 13.4017V13.913L62.2624 14.4209L61.5906 15.3061L61.4548 15.5829L60.0353 17.2264L57.3603 19.3636L56.5315 21.1463L55.3466 23.2271L55.2901 24.0594L54.7664 25.2866L52.825 25.5123L52.0755 25.9073L50.0089 25.7257L46.9883 28.1115L39.0321 29.5751L36.3712 31.8392L33.1125 32.5657L29.6228 32.2148L25.6359 32.959L22.3226 31.9627L14.8407 32.0685L12.5078 33.1617L11.1183 35.6251L9.84867 35.8896L8.58082 35.2813L6.78926 32.3753L4.40169 31.5624L2.08465 29.1325L1.27704 26.1754L2.6789 22.3418L4.0067 19.9649L4.82666 19.1273L7.56161 17.505L9.89981 13.4405L12.0476 12.8885L13.0403 10.7408L16.724 9.46765L24.756 7.16296L26.768 5.42782L34.4438 4.62373L39.6686 2.34196L40.9188 2.6964L47.281 1.66836L50.9699 1.36154L53.4104 1.77417L54.3432 3.17779L55.5035 4.08415L59.3017 5.59534L60.4567 6.76796L61.2308 9.59285L61.9944 10.7002L62.3594 10.27L62.8584 9.85911L63.07 9.46236Z" fill="#F6A555" stroke="white"/>
</svg>
