<svg width="115" height="124" viewBox="0 0 115 124" fill="none" xmlns="http://www.w3.org/2000/svg">
<path fill-rule="evenodd" clip-rule="evenodd" d="M66.035 7.99564L68.6447 7.3626L71.2492 5.90961L72.8292 4.68937L74.7089 5.08612L76.2624 4.26793L78.0839 2.85901L82.4782 4.42663L86.9694 5.13549L88.3854 5.56399L87.4738 7.64298L85.2043 9.26173L83.8518 11.3584L84.7159 12.3317L85.8321 12.9507L86.5304 12.9648L87.2463 12.628L89.6392 11.8274L93.3898 11.3989L94.171 12.2612L94.0316 13.6683L95.5957 15.2941L96.1635 16.592L97.5954 16.4826L99.2882 16.1829L101.186 15.5763L103.064 15.5639L104.936 16.9834L107.01 18.3289L109.059 18.7344L111.062 18.9672L112.656 19.6602L114.236 20.6812L113.275 21.7744L112.21 22.3916L111.274 22.0284L110.51 22.5168L108.694 24.4441L106.692 26.1193L105.382 27.3925L103.757 27.9038L102.78 28.7167L102.087 29.9722L99.6532 31.7003L97.9216 34.1796L97.0999 36.0311L96.0983 37.8668L96.652 38.8295L97.6941 39.7906L96.5303 43.6505L89.9407 46.4225L87.1334 45.4985L85.9608 43.1233L84.1058 41.5151L82.7956 40.5805L81.7711 39.4291L80.7448 40.443L79.9231 41.7426L79.5316 43.2732L78.9797 44.8937L76.7103 44.7174L74.2769 43.8604L73.0073 43.0404L71.6636 43.9062L70.371 45.6502L68.7999 45.7859L67.5409 44.9501L66.5869 46.5653L65.603 48.7131L65.074 50.7268L66.5798 52.6718L67.726 54.8778L62.145 53.9908L59.1438 52.6859L57.4334 55.2392L54.6843 56.5441L52.235 58.2105L52.0322 59.3761L52.0798 60.2912L51.6408 61.2928L49.8669 63.6769L48.7295 64.8971L47.5727 65.1069L46.4089 65.65L47.2959 67.8895L50.38 68.415L54.2364 74.0207L52.8046 75.419L52.0234 77.6567L51.706 82.9873L51.2334 85.3378L51.7307 87.0218L52.6018 88.5647L51.4697 90.8165L49.7293 92.3242L50.2019 96.9636L53.3653 96.2177L55.2697 96.8401L57.4986 98.704L59.0274 99.4305L63.0496 98.4642L64.8289 99.7796L65.7246 104.867L64.0494 104.765L62.1627 104.415L60.2583 106.048L60.6973 108.667L60.7132 110.002L60.5421 111.606L59.7857 112.525L59.1738 113.613L58.5161 116.112L57.2958 118.496L55.3191 119.159L53.4076 120.097L52.399 121.158L51.3886 122.084L50.2336 121.458L49.0874 120.361L46.1815 121.673L43.6511 123.225L42.3903 122.864L41.6567 121.945L38.1335 120.786L36.9539 119.385L35.619 118.598L35.1076 119.284L34.4728 119.441L33.7234 118.755L33.048 117.942L31.2582 115.156L29.6571 112.301L28.98 108.96L29.0858 105.59L28.2729 102.689L25.8554 101.206L23.5207 100.448L20.9832 100.975L20.7716 98.1997L20.9092 95.5018L21.8526 91.7247L23.6353 88.5154L24.3512 86.8772L25.1482 85.4242L26.4425 84.4456L26.7423 82.751L25.7354 82.4142L24.6439 81.9205L23.3179 82.8903L22.2846 84.2833L21.4717 81.6824L21.3324 79.9349L20.3643 79.4377L20.5018 78.3215L19.4033 78.0499L18.4846 79.3865L15.9453 79.9508L13.5701 79.2719L13.8699 77.5579L13.4149 76.4611L12.7308 76.1296L12.17 75.5125L11.8932 74.8018L12.073 74.0524L12.4063 73.0914L12.5615 72.0739L12.4715 71.5784L12.4151 71.0829L12.1541 70.4552L12.3093 69.7075L12.7078 68.7923L12.7643 67.7255L6.77593 67.3464L0.983337 68.5102L1.34835 65.5002L2.33406 62.6859L2.1877 61.0371L3.72534 57.6885L5.90484 54.5233L7.56591 51.6367L8.22364 50.9279L8.97306 51.046L9.70485 50.8397L10.1034 50.0885L10.2092 49.2439L10.4525 48.17L10.8352 47.1331L11.0309 46.024L10.8598 44.9096L10.3397 43.9221L9.68898 43.3243L9.77009 41.3018L8.73677 40.5752L7.38605 37.8509L6.32804 37.2372L5.40052 36.2603L4.78335 34.8003L8.31357 33.7634L11.6586 32.15L14.2772 31.2701L14.9861 28.3711L16.2716 26.9763L18.2888 26.1035L19.241 24.8691L19.8917 23.231L21.1119 21.9314L22.6496 22.2558L23.0975 22.8483L25.0742 21.4694L28.8336 14.4671L29.2163 13.6278L29.6712 12.8572L30.2831 12.367L30.9162 11.9226L31.551 10.9687L32.1047 9.91592L40.4206 7.63592L48.793 6.48975L48.1176 11.2561L50.5087 10.69L52.9192 10.8593L53.584 11.2737L54.2611 11.5911L54.8712 11.0568L55.4002 10.4114L56.9943 9.31815L56.564 4.51656L58.0523 2.68797L62.0639 1.32843L65.0581 4.50421V6.62552L66.035 7.99564Z" fill="#F6A555" stroke="white"/>
</svg>
