<svg width="119" height="108" viewBox="0 0 119 108" fill="none" xmlns="http://www.w3.org/2000/svg">
<path d="M116.259 99.1571L114.656 96.3005L113.981 92.9589L114.086 89.5892L113.273 86.6902L110.856 85.2072L108.521 84.449L105.982 84.9762L105.77 82.199L105.91 79.5011L106.853 75.7257L108.634 72.5147L109.352 70.8783L110.149 69.4235L111.443 68.4449L111.743 66.7503L110.734 66.4153L109.645 65.9215L108.318 66.8896L107.285 68.2844L106.903 70.5803L105.869 72.2414L104.728 76.4646L102.67 78.1292L101.54 78.5118L99.7821 77.4873L97.2112 76.2071L96.1778 74.2886L95.4531 70.8342L94.217 68.5313L93.5981 65.8439L95.1763 59.3107L95.4866 58.5437L95.275 57.9018L81.1911 61.7565L74.0214 60.3476L74.7391 58.2968L75.9346 57.1506L85.9839 52.5113L86.3489 49.4995L87.3329 46.6852L87.1865 45.0364L88.7242 41.6878L90.9054 38.5226L92.5647 35.636L93.2242 34.9289L93.9719 35.0453L94.7054 34.839L95.104 34.0896L95.2098 33.2432L95.4531 32.1693L95.8357 31.1342L96.0315 30.0233L95.8604 28.9106L95.3402 27.9214L94.6896 27.3254L94.7707 25.3028L93.7374 24.5763L92.3866 21.8519L91.3286 21.2365L90.4011 20.2596L89.7822 18.8013L86.0633 18.297L83.0215 15.7384L79.62 14.1849L73.078 16.9869L69.9939 16.9851L66.3244 16.2286L66.2997 16.2233L64.7885 17.3801L61.3676 18.7608L59.9181 19.0006L58.3117 19.7218L59.1176 21.3758L61.8208 24.3771L60.1491 24.169L58.5533 23.7052L59.2075 26.1704L58.8107 27.5705L58.0349 28.8824L57.5746 31.0884L56.9204 30.7904L56.4655 30.4059L56.1587 29.8417L55.9206 29.0147L57.2149 28.6179L57.4406 27.7415L56.7741 24.6821L56.0758 23.506L55.9206 22.6966L55.9982 21.9207L56.3632 20.5823L56.4461 19.9828L56.2733 17.1703L55.9471 15.7208L55.3828 14.9114L54.5752 15.0595L53.0957 16.971L52.1541 17.5952L53.3902 13.3403L53.2756 11.2366L51.6163 9.52792L50.2462 8.6286L48.3365 8.11547L46.8288 7.56177L45.4657 7.3872L44.2455 7.39779L42.9477 8.0079L42.2194 9.37979L41.7204 10.2209L41.3977 11.0197L41.6975 13.4372L41.4876 14.2537L41.1402 14.9837L40.2762 15.5832L40.5636 13.9645L40.4684 13.044L39.6872 11.5452L39.5321 10.8398L40.2974 9.93876L40.6677 8.60567L39.8812 7.26025L38.7298 6.62367L37.5342 5.80901L36.917 5.17949L35.4129 4.13735L33.8365 3.01057L32.7097 2.01958L31.4542 1.41298L30.0118 1.45354L30.1846 2.9806L30.9181 5.25708L32.5492 6.7859L34.0481 7.50711L35.1643 7.78395L35.7021 8.41875L35.6315 9.09589L34.8945 9.52792L33.914 9.52438L33.1064 9.15584L32.4399 8.56159L31.1844 6.98869L30.3768 6.22692L29.7049 6.10702L29.4351 7.17031L29.7808 7.44717L34.6053 12.5556L35.2083 13.5572L35.8943 15.5638L36.4568 16.315V16.9216L35.3353 16.874L34.7411 16.2251L34.3372 15.2394L33.78 14.1743L32.4152 12.6596L31.4612 12.0107L31.038 12.5556L30.703 14.8708L29.2623 19.5737L28.9414 22.0247L28.6857 22.485L28.1091 22.1482L27.5343 21.2559L27.2698 19.9828V15.5832L27.4955 14.9749L28.2061 14.1267L28.3472 13.8693L28.2643 13.1957L27.8975 12.5714L27.8076 11.882L27.4814 11.0567L26.7125 11.0391L25.822 11.5258L25.1308 12.2188L24.6318 10.6229L25.092 9.50499L25.8485 8.64977L26.2452 7.84391L25.6563 6.5408L24.265 6.05059L21.3643 6.09997V6.83352L21.7082 7.57588L21.4084 7.88094L20.7471 7.74869L19.9995 7.17031L19.2307 6.73299L18.3842 6.87759L17.6031 7.42424L17.0194 8.18072L18.4618 8.07314L19.6715 8.44168L20.2305 9.34805L19.7103 10.8751L18.5765 10.0534L18.1991 10.3743L18.4477 11.2877L19.2113 12.2188L20.2305 12.6314L22.2918 12.6667L22.9778 12.8959L23.5932 14.5305L23.304 16.7418L22.1896 18.5562L20.294 19.0006V19.6143L21.8122 20.2508L22.4399 20.346V20.9597L20.8635 21.36L20.0436 21.6915L19.7103 22.0247L19.3506 23.088L18.5765 22.5837L17.3086 20.9597L16.4693 21.9436L17.0441 24.1408L18.6734 27.6692L16.404 26.1104L15.4112 26.1386L14.0852 27.3624L13.5209 27.6216L13.1048 27.0979L12.8491 26.2021L12.7715 25.354L13.066 25.0965L14.482 24.169L14.9122 23.7052L14.847 23.312L14.3532 21.8643L14.3285 20.9597L14.8099 20.1062L15.5788 19.2898L16.0584 18.3764L15.078 15.7843L14.7324 13.6295L14.6759 11.5011L14.9122 10.1416L13.0801 10.7076L12.7151 13.1357L12.9126 16.114L12.7715 18.3288L12.2584 19.214L11.7347 19.579L9.77912 19.6143L8.69642 19.3815L8.50598 18.7167L9.005 16.315L7.08295 17.0063L5.72341 18.1119L5.6088 19.482L7.38977 20.9597L6.09019 23.0563L6.23655 24.2818L7.47442 24.8408L9.48464 24.9854L8.88862 26.1545L7.9664 26.3943L5.72341 25.7207L6.56453 27.2337L7.38977 28.4028L6.71795 28.2582L6.12193 28.0501L5.60351 28.0095L5.18559 28.4028L4.64248 27.6022L4.21928 26.7946L3.87895 25.9376L3.62856 24.9854L3.31644 26.2409L2.91793 27.1385L0.900663 29.7059L0.682007 30.3689L0.835414 32.76L0.740192 35.2216L1.04878 36.0134L1.97101 35.174L2.41184 34.0384L2.64285 31.5927L3.04665 30.4183L4.06587 31.2576L5.33372 31.6297L6.54513 32.2239L7.38977 33.7669L7.40917 35.2499L6.58216 35.8141L3.33408 35.7824L2.94966 36.1897L3.0731 37.0926L3.39933 38.006L3.62856 38.4627L4.58429 39.0181L5.39014 38.9617L6.19775 38.6425L7.10235 38.4627L8.63999 37.8913L10.7207 35.2534L12.1755 34.4387L12.7715 37.119L12.0803 39.0252L14.392 42.827L13.3093 45.2216L13.5791 45.7876L13.759 46.4506L13.8472 47.1807L13.8348 47.8983L14.5208 46.8809L15.3742 46.0433L16.3917 45.4614L17.596 45.2216L16.27 43.4212L16.1536 42.6118L17.0194 41.8765L16.501 40.2595L15.0656 37.9619L14.3285 36.4525L16.1219 36.4242L16.6932 35.2745L16.8854 33.7034L17.596 32.425L18.8656 32.201L19.7103 33.215L19.4387 35.7066L20.3416 36.1368L19.8743 38.0518L19.4952 43.3524L21.0099 44.3505L22.5316 44.4193L23.9899 45.5584L24.7023 44.6608L25.5381 42.469L25.1925 39.8998L25.7727 37.9848L25.6739 36.3202L25.1167 35.465L25.0726 34.7737L25.323 34.079L26.5715 33.5447L27.6877 32.3245L28.3472 31.7602L28.5905 32.6242L28.9555 33.2326L30.0118 34.4387L28.1708 34.7314L27.5678 35.9393L27.9486 37.581L29.8372 37.9354L30.5866 39.295L29.4775 40.189L28.6787 41.3369L29.943 42.5907L30.8758 42.7846L31.5177 43.6363L31.0451 44.6943L30.9234 45.8881L29.2817 45.8335L27.7071 46.567L26.6208 46.634L26.6543 47.0466L27.134 47.7608L27.5307 49.4448L27.596 50.3441L27.2521 51.1658L27.6171 52.0651L27.991 52.141L28.6081 52.5518L29.2906 53.1954L30.8 52.6488L31.0504 53.1831L30.2886 54.3716L28.6469 56.2954L28.5958 57.3904L29.0507 59.2472L29.7684 61.0564L30.5513 62.0086L31.7998 61.7688L33.4979 59.2349L34.6053 58.6019H39.1988L37.6665 59.4236L34.4237 60.3282L32.9089 62.5394L31.2849 63.0332L29.8566 63.8231L31.038 66.0167H30.0118V66.6762L30.6466 67.237L31.5759 68.3726L32.1137 68.7464L34.7076 68.7623L35.9525 69.0885L36.4568 70.3845L35.7268 71.402L32.223 72.2537L31.038 73.3523L32.2424 73.9924L35.5857 75.0169L36.4568 76.0872L35.3036 76.8543L34.3567 78.8592L32.7026 83.4122L33.1911 84.1016L33.78 84.7452L34.2279 84.9921L34.8557 84.6218L35.3811 84.7452L36.2593 85.3889L36.9188 86.1471L38.0844 88.0762L34.7834 87.1222L32.4223 87.8699L29.749 89.2259L29.4351 92.0737L29.973 92.571L30.2357 91.9397L30.7136 90.1041L32.2495 89.8607L34.0287 91.0016L34.0692 92.0737L34.5647 92.079L35.6121 91.4724L36.9964 92.0737L38.7968 95.1754L39.7825 95.5052L40.8581 95.9566L41.3712 96.5667L40.2762 97.4555L40.9868 98.6404L42.3129 100.386L42.9671 101.444L43.3762 102.67L43.5049 103.56L43.9087 104.237L45.106 104.823L46.753 104.094L48.5093 103.796L49.9817 103.088L51.3148 101.806L52.9035 100.707L54.5223 100.21L58.0666 95.8349L61.8331 95.4223L66.2609 94.4701L74.4128 91.8974L77.3171 92.4793L76.6188 96.7783L78.294 99.3916L80.6216 98.9561L82.8258 98.0991L87.1636 97.2544L88.3027 96.8577L89.4154 96.3587L91.0677 96.0166L92.1257 94.3678L93.4446 93.0153L95.9574 95.2513L99.4982 101.635L102.11 102.95L103.118 103.207L103.589 104.177L103.037 105.29L103.363 106.071L107.92 106.669L109.62 106.251L111.939 106.143L114.273 105.495L116.185 103.814L118.049 101.941L116.259 99.1571ZM23.0994 61.8447L22.507 60.0337L22.2918 59.0991L22.3712 58.6124L22.4593 57.997L21.3431 57.371L20.8053 57.2635V56.6587H22.4593L21.7593 55.4367L20.8653 54.9059L20.4597 54.2023L20.8053 53.4053L20.5955 52.4495L19.2677 49.4413L19.1972 48.7677L19.7967 48.2863L20.1388 47.5668L19.9995 46.9655L18.952 45.2851L17.4514 45.7982L16.0566 47.096L15.376 47.9883L16.1889 50.7268L16.5521 52.8957L16.8537 56.4841L16.4252 58.8346L17.2504 58.3903L17.6154 59.2719L18.6911 57.997L19.2307 58.6019L17.8076 60.5733L17.5643 62.0351L18.4424 62.4583L20.3186 61.2716L19.9995 62.1374L19.3946 62.6946L19.0155 63.2148L19.2307 64.6784L20.3645 64.8617L23.863 64.6625L24.6106 65.0134L24.1627 63.4846L23.0994 61.8447Z" fill="#F6A555" stroke="white"/>
</svg>
