<svg width="301" height="538" viewBox="0 0 301 538" fill="none" xmlns="http://www.w3.org/2000/svg">
<g filter="url(#filter0_d_1560_355)">
<path fill-rule="evenodd" clip-rule="evenodd" d="M272.283 298.412L279.605 297.087L285.838 298.614L285.908 298.595L286.028 298.741L286.556 299.673L286.258 301.781L286.088 304.28L285.556 308.034L284.755 309.623L283.463 311.372L282.271 312.016L281.751 310.313L281.289 308.092L280.271 306.43L279.176 306.146L278.522 308.034L279.597 308.283L280.239 309.098L280.548 310.288L280.618 311.663L280.271 312.961L279.463 313.263L278.562 313.345L277.933 313.975L278.049 314.668L278.15 316.463L278.471 318.316L277.737 319.505L277.071 320.693L277.727 321.619L278.252 322.15L278.144 323.462L276.524 323.994L275 324.913L272.814 327.084L270.962 327.015L270.932 327.115L270.615 326.84L268.377 326.049L266.662 324.347L266.133 321.668L264.325 320.26L260.273 318.025L256.873 314.132L254.831 312.578L249.982 311.833L248.802 309.447L250.77 305.472L250.435 301.623L252.333 300.087L254.359 298.904L255.57 298.875L256.067 297.925L255.311 296.673L254.879 295.315L257.533 293.256L260.858 292.092L263.585 291.679L266.254 292.24L269.028 293.437L269.751 294.628L269.793 296.075L269.989 297.366L270.966 298.07L272.283 298.412Z" fill="#F6A555" stroke="white"/>
<path fill-rule="evenodd" clip-rule="evenodd" d="M229.403 275.51L228.809 275.334L228.068 275.401L228.111 276.038L228.005 276.859L227.264 278.801L227.255 279.429L227.019 280.337L225.261 281.403L220.713 280.219L218.167 279.961L217.044 280.85L215.921 282.816L215.319 283.331L214.596 282.731L213.626 282.104L212.237 280.975L211.299 279.164L210.153 278.035L208.932 277.558L208.46 275.766L209.55 274.241L210.729 274.234L212.001 274.026L212.332 273.107L212.479 272.137L211.789 271.881L211.04 271.758L211.884 269.848L213.237 268.36L212.739 263.929L216.441 260.852L221.454 260.178L225.612 259.907L228.77 262.224L229.77 263.969L229.729 264.738L229.347 265.385L229.37 267.843L230.006 268.797L230.851 269.519L231.015 271.061L231.055 272.705L230.632 274.241L229.403 275.51Z" fill="#F6A555" stroke="white"/>
<path fill-rule="evenodd" clip-rule="evenodd" d="M101.44 108.405L103.597 108.379L105.444 107.712L107.046 107.689L107.649 109.133L107.437 110.613L106.339 111.17L105.143 111.965L105.168 113.76L105.802 114.473L104.452 116.319L103.702 117.615L101.66 118.83L99.4138 119.352L97.1039 120.516L96.201 118.44L94.2314 118.897L92.2793 119.505L90.8951 120.301L89.4562 120.535L86.0794 120.421L83.7677 117.379L81.4894 116.693L79.9183 115.658L79.5039 112.81L77.9416 110.579L76.0795 108.298L77.2591 105.76L79.4633 105.901L81.9867 107.441L83.8576 106.804L85.5257 105.788L85.6544 104.078L86.1112 102.501L89.6431 102.163L91.4559 99.8511L92.5632 97.5023L94.1326 95.8201L96.5907 95.2311L99.4227 95.4621L100.773 97.7897L101.294 100.955L102.115 103.166L102.165 105.593L101.44 108.405Z" fill="#F6A555" stroke="white"/>
<path fill-rule="evenodd" clip-rule="evenodd" d="M153.886 387.776L154.707 387.986L155.423 389.123L155.988 390.527L156.654 392.923L156.723 394.321L156.488 395.679L155.917 396.996L155.129 397.804L154.245 397.875L153.36 397.4L150.574 394.559L150.248 393.454L150.72 391.694L151.066 391.234L152.54 390.116L152.805 389.544L153.401 387.113L152.209 385.843L152.348 385.067L153.207 384.669L154.187 384.558L155.032 384.94L155.245 385.834L154.841 386.891L153.886 387.776Z" fill="#F6A555" stroke="white"/>
<path fill-rule="evenodd" clip-rule="evenodd" d="M91.1801 334.536L92.7741 338.943L89.6742 343.082L84.8179 342.304L80.5294 339.729L78.3729 334.99L80.0745 333.381L82.8976 334.131L84.9643 333.658L87.1191 333.011L91.1801 334.536Z" fill="#F6A555" stroke="white"/>
<path d="M161.408 260.097L160.399 261.159L159.389 262.083L158.234 261.457L157.087 260.36L154.181 261.674L151.651 263.224L150.39 262.862L149.657 261.945L146.133 260.787L144.954 259.385L143.621 258.599L143.108 259.285L142.473 259.44L141.723 258.754L141.05 257.941L139.186 259.814L137.273 261.494L134.938 262.145L132.619 262.252L130.919 262.668L126.363 262.071L126.037 261.289L126.59 260.177L126.118 259.207L125.109 258.951L122.498 257.636L118.959 251.251L116.444 249.015L115.125 250.367L114.069 252.016L112.416 252.358L111.302 252.857L110.163 253.254L105.825 254.1L103.621 254.956L101.293 255.391L99.6181 252.78L100.316 248.479L97.4122 247.897L89.2602 250.471L84.8342 251.422L81.0659 251.834L77.5234 256.209L82.1363 254.783L81.997 256.19L80.44 257.306L76.7563 258.775L73.8538 260.981L72.2016 261.829L70.8491 261.432L69.5795 262.196L65.6561 262.429L61.7749 262.912L54.6404 263.682L54.9807 266.617L58.444 266.072L60.7927 266.878L61.521 267.514L61.759 269.815L61.7943 271.487L65.5573 271.787L69.3697 272.037L71.3093 271.94L77.0949 269.6L77.3453 269.403L78.2746 269.746L79.1139 270.478L79.523 271.191L79.1774 271.506L78.0947 271.693L77.7173 272.187L77.5375 272.901L77.0579 273.776L76.3455 274.146L75.3844 274.225L70.9902 273.941L70.2725 274.107L69.6183 274.645L68.9659 275.546L68.7543 276.384L69.4843 276.756L70.8738 277.798L72.5842 278.965L74.0884 279.713L74.8131 280.242L75.8658 281.081L75.7494 282.222L75.4814 283.319L75.1534 284.111L74.3141 282.656L73.0586 282.34L71.3076 280.988L68.5426 280.646L65.7195 280.931L65.2452 281.344L64.3494 281.912L63.1397 282.631L62.8047 285.527L60.6023 288.605L57.7051 290.205L55.3422 291.584L53.8522 293.292L52.244 294.883L50.3996 295.802L50.3361 296.842L50.098 299.448L53.9897 301.876L65.1588 300.05L66.3508 300.734L67.0808 302.377L68.1071 305.992L67.0491 305.638L65.6084 303.853L64.2031 302.275L62.6354 302.679L61.5263 304.28L60.3731 305.207L57.8709 305.343L54.9455 305.944L52.3763 306.867L50.5777 309.459L48.444 314.447L47.0933 317.272L46.5167 319.556L46.8993 320.586L47.9873 321.822L47.9996 321.818L49.6272 321.294L57.2749 319.157L59.5443 319.767L59.0893 323.299L58.585 325.899L58.4722 328.514L60.433 329.173L62.7747 328.586L65.2734 327.679L67.9096 327.284L68.9676 326.502L70.1067 325.809L71.4575 325.415L72.7429 324.795L73.7851 323.888L74.4428 322.522L74.2894 321.534L74.2312 320.503L75.224 319.773L75.9487 318.674L75.8764 317.367L75.8835 316.061L77.8602 314.283L80.5299 314.544L81.84 312.989L83.2719 313.09L84.6473 313.673L87.0543 315.648L90.7485 320.661L93.1819 320.631L93.3688 319.252L93.8731 317.976L94.6472 317.232L95.215 316.237L97.5338 316.112L99.1208 318.531L98.4226 321.317L98.9022 323.109L100.505 324.92L100.399 328.113L102.295 330.132L105.224 330.568L107.486 329.214L109.861 328.82L111.498 328.843L112.88 328.489L114.076 329.413L115.419 330.198L118.317 330.25L121.172 329.868L123.783 329.847L126.25 329.503L128.542 327.031L131.399 325.437L136.435 327.26L140.926 330.885L142.579 329.196L142.693 326.815L143.213 324.234L146.5 320.296L146.973 317.646L145.841 316.891L145.037 315.065L145.174 312.592L144.303 310.316L144.157 309.094L143.864 308.025L141.847 307.172L141.928 304.737L143.026 302.492L143.702 299.475L144.62 296.555L145.841 294.269L146.834 292.097L147.063 289.117L147.941 286.576L149.74 284.978L151.439 283.199L152.921 279.992L153.693 279.494L154.767 279.609L156.703 279.013L160.618 276.93L161.381 274.89L164.262 271.795L164.629 265.604L161.408 260.097ZM37.4442 297.768L37.1568 298.087L36.5608 298.572L35.6686 298.41L35.33 298.394L35.464 298.926L35.1819 299.055L34.7075 299.134L34.4131 299.552L33.9775 299.797L33.7853 300.025L34.1768 300.279L34.2914 300.434L33.4661 300.87L33.311 301.483L33.5614 302.122L33.907 302.485L34.3619 302.381L34.6194 302.144L35.233 301.668L36.2081 300.58L37.6559 299.328L37.9503 298.607L37.7846 298.027L37.4442 297.768Z" fill="#F6A555" stroke="white"/>
<path fill-rule="evenodd" clip-rule="evenodd" d="M88.07 502.462L88.666 503.688L88.301 504.108L87.5375 504.33L86.9944 504.982L87.0314 505.531L87.5322 506.402V506.913L87.2624 507.421L86.5906 508.306L86.4548 508.583L85.0353 510.226L82.3603 512.364L81.5315 514.146L80.3466 516.227L80.2901 517.059L79.7664 518.287L77.825 518.512L77.0755 518.907L75.0089 518.726L71.9883 521.112L64.0321 522.575L61.3712 524.839L58.1125 525.566L54.6228 525.215L50.6359 525.959L47.3226 524.963L39.8407 525.068L37.5078 526.162L36.1183 528.625L34.8487 528.89L33.5808 528.281L31.7893 525.375L29.4017 524.562L27.0847 522.133L26.277 519.175L27.6789 515.342L29.0067 512.965L29.8267 512.127L32.5616 510.505L34.8998 506.44L37.0476 505.889L38.0403 503.741L41.724 502.468L49.756 500.163L51.768 498.428L59.4438 497.624L64.6686 495.342L65.9188 495.696L72.281 494.668L75.9699 494.362L78.4104 494.774L79.3432 496.178L80.5035 497.084L84.3017 498.595L85.4567 499.768L86.2308 502.593L86.9944 503.7L87.3594 503.27L87.8584 502.859L88.07 502.462Z" fill="#F6A555" stroke="white"/>
<path d="M75.4934 117.846L74.2238 117.012L73.3774 115.067L73.3862 112.723L68.7468 108.26L64.7105 108.405L61.1256 108.532L60.7395 110.933L60.914 112.75L61.3337 113.741L62.9542 113.564L63.2416 112.7L64.3032 112.99L64.1357 113.815L63.4585 114.162L61.2014 114.845L60.4344 116.176L60.6918 117.599L60.5102 119.41L61.8027 120.096L63.2134 120.863L63.8676 121.976L62.8237 123.548L62.0143 125.349L64.0016 126.871L65.9237 124.414L70.0499 124.943L70.2774 125.615L72.7584 124.889L73.3456 124.457L74.3789 123.69L75.5004 121.519L76.241 119.075L75.4934 117.846ZM58.9708 113.189L58.5547 112.796L58.2461 112.311L57.9375 111.991L57.2921 111.671L56.8178 111.577L56.3752 111.552L55.9273 111.367L55.4723 111.108L55.0315 110.935L54.1216 110.017L53.0054 110.429L52.4588 112.653L50.8577 113.499L49.1225 113.457L46.5674 113.735L43.0002 116.238L42.3495 115.899L41.8805 116.042L41.5789 116.777L41.7888 117.294L42.651 118.114L42.8238 118.652L42.323 119.149L43.1712 119.362L43.7584 119.629L44.2451 119.246L44.5625 118.826L45.0404 118.888L45.2379 119.371L45.1039 119.72L45.1938 119.925L45.453 119.835L45.7404 119.521L46.3629 119.916L46.6926 121.126L47.0047 121.203L47.7259 121.12L48.4983 121.298L51.9315 118.703L52.4799 117.733L53.4709 116.841L55.3101 116.037L56.1477 115.642L56.756 115.744L58.1315 115.412L58.4013 115.054L59.066 114.557L59.4928 114.379L59.297 113.859L58.9708 113.189Z" fill="#F6A555" stroke="white"/>
<path d="M205.524 374.838L204.753 374.084L203.38 374.172L202.168 374.477L201.417 374.786L200.881 374.523L199.955 373.812L198.74 373.318L197.816 373.553L197.185 374.251L197.352 374.881L197.887 374.909L198.786 374.625L200.204 375.115L200.966 375.718L200.823 376.448L200.068 377.048L200.431 377.339L201.445 377.49L201.664 378.118L201.509 378.748L202.168 378.772L202.475 379.522L203.048 380.252L204.349 380.238L205.154 379.227L205.473 378.651L204.826 378.115L204.177 377.988L204.155 377.746L204.466 377.557L205.259 377.878L205.601 377.3L205.314 376.84L205.732 376.069L205.524 374.838ZM229.639 368.296L228.876 368.824L227.282 369.386L228.525 366.126L228.839 364.98L228.856 363.719L228.511 362.788L228.031 361.885L227.666 360.756L227.627 360.192L228.139 356.627L228.116 355.697L227.768 354.898L226.377 354.35L225.168 355.322L224.727 357.073L225.667 358.838L220.151 361.98L219.112 361.851L219.197 363.387L219.569 365.024L220.401 366.457L221.863 367.418V368.016L220.401 367.914L219.343 367.394L218.312 366.72L217.019 366.172L216.211 366.156L213.265 366.766L212.239 367.203L211.041 367.984L210.003 368.998L209.497 370.1L209.74 371.929L210.655 373.31L211.777 374.542L212.674 375.939L213.924 374.914L216.749 373.66L217.555 372.662L218.633 373.318L218.209 375.008L218.172 376.501L217.613 377.559L215.652 377.958L215.161 378.46L215.115 379.568L215.467 380.672L216.192 381.174L218.633 379.922L218.236 381.326L218.172 382.468L218.594 383.318L219.708 383.847L217.019 385.805L218.735 385.687L224.437 383.918L225.667 382.833L225.014 382.096L223.718 381.557L222.783 380.837L223.226 379.594L224.591 378.004L224.834 377.277L225.078 375.939L225.975 376.588L227.455 377.369L228.832 377.843L229.435 377.605L229.221 376.12L228.204 373.95L227.768 372.662L228.839 373.114L229.53 372.444L229.881 371.238L229.973 370.1L229.895 368.483L229.639 368.296ZM236.104 351.532L235.199 351.627L234.367 352.1L234.148 352.793L234.566 353.553L234.834 354.35L234.739 355.032L234.949 355.524L235.545 356.149L235.931 357.831L236.123 358.251L236.527 358.113L237.045 357.401L237.391 355.413L237.43 352.98L236.892 351.769L236.104 351.532ZM270.614 326.84L268.378 326.048L266.661 324.347L266.132 321.67L264.326 320.259L260.274 318.025L256.872 314.132L254.831 312.578L249.981 311.834L248.802 309.446L250.77 305.472L250.436 301.622L248.232 302.361L245.912 301.268L242.886 300.517L240.038 301.688L239.135 302.855L238.052 303.791L236.913 303.941L235.783 304.361L233.219 306.398L230.283 306.313L227.825 305.017L225.252 304.229L222.309 304.758L219.452 305.079L216.987 303.518L215.002 301.092L214.351 295.736L212.537 297.142L210.592 299.919L208.435 299.48L204.221 301.645L201.983 301.196L199.966 299.681L197.834 298.655L195.564 298.274L193.187 298.611L188.331 298.404L187.093 293.929L188.037 291.744L188.086 289.457L187.037 288.221L185.824 287.47L185.556 286.634L185.117 285.729L183.374 284.495L182.327 282.501L180.828 280.87L178.795 280.182L176.564 280.203L174.304 280.027L173.025 279.164L171.992 278.297L169.608 278.112L168.966 277.895L168.33 277.606L168.014 276.821L167.947 276.054L167.224 275.437L166.492 274.883L164.896 273.956L164.263 271.795L161.382 274.89L160.617 276.932L156.702 279.013L154.768 279.609L153.692 279.494L152.92 279.991L151.438 283.199L149.739 284.978L147.94 286.576L147.062 289.117L146.834 292.097L145.842 294.271L144.62 296.555L143.701 299.475L143.025 302.492L141.929 304.737L141.846 307.172L143.865 308.025L144.158 309.094L144.304 310.316L145.173 312.592L145.036 315.066L145.842 316.891L146.972 317.646L146.501 320.296L143.214 324.234L142.692 326.817L142.579 329.196L140.927 330.885L140.504 332.989L142.123 334.9L142.913 337.367L143.246 342.486L144.311 344.401L146.249 345.814L148.005 347.66L148.689 349.693L149.536 351.467L154.441 356.815L155.499 359.423L155.491 361.209L155.69 361.634L155.693 361.636L156.513 361.858L157.684 362.826L158.166 362.375L158.786 362.305L159.537 362.495L160.375 362.826L162.477 362.64L164.124 361.162L164.97 358.714L165.201 355.618L166.085 356.302L166.584 357.244L167.411 359.552L169.447 358.263L171.581 358.309L172.562 357.644L171.119 354.241L173.011 354.077L174.26 352.786L175.272 351.065L176.501 349.589L176.406 350.767L176.06 351.689L175.656 352.393L175.427 352.925L175.297 354.073L175.427 361.194L175.297 361.839L175.099 362.562L175.06 363.317L175.427 364.086L176.079 364.442L177.931 364.6L179.065 364.863L179.941 364.703L180.306 364.798L180.391 365.168L180.41 366.574L180.578 367.094L182.018 367.898L185.676 367.736L187.342 368.016L187.303 366.593L187.464 365.121L187.899 363.96L188.687 363.484L190.475 363.668L191.347 364.227L193.011 366.47L194.838 366.353L196.132 363.853L197.419 362.578L199.208 366.172L197.395 366.875L196.587 367.381L196.746 368.173L197.874 369.741L198.894 370.148L203.782 370.698L203.39 371.343L202.745 371.46L201.225 371.481L201.186 372.948L203.551 373.107L205.312 372.576L207.3 369.984L208.395 368.016L207.329 366.766L207.088 367.711L206.543 368.476L205.852 368.705L205.127 368.016L205.716 364.086L205.818 362.086L205.794 361.365L205.716 360.866L205.185 360.044L204.473 359.63L204.108 359.176L204.64 358.238L205.658 358.66L207.195 358.73L208.733 358.473L209.74 357.909L210.375 356.632L210.214 355.528L209.74 354.288L209.47 352.597L208.137 352.687L200.283 356.866V356.212L201.123 355.343L201.278 354.022L201.68 352.805L204.774 351.959L207.471 350.598L208.934 350.305L208.022 349.019L207.971 348.344L208.682 347.99L211.292 347.492L212.482 347.568L216.728 349.067L217.268 349.506L218.024 350.305L218.285 350.922L218.326 351.566L218.562 352.074L219.401 352.269L220.995 352.264L221.688 352.082L222.381 351.619L221.822 351.471L220.849 351.049L220.228 350.963L220.6 349.681L220.406 348.79L219.093 347.016L218.421 345.856L218.095 344.964L217.536 342.418L216.538 340.33L216.557 339.298L217.536 337.753L218.44 336.93L218.902 337.196L219.689 339.728L219.382 340.446L220.034 342.379L219.689 343.736L221.272 343.103L222.348 343.976L223.323 345.387L224.571 346.366L224.616 344.877L225.185 343.992L225.859 343.715L226.187 344.063V348.274L227.396 347.335L228.338 347.447L229.197 349.057L231.029 349.884L231.817 349.506L232.533 346.836L233.06 347.773L233.358 349.54L238.542 349.457L240.493 349.682L241.048 347.376L241.732 345.851L242.256 345.927L242.182 347.766L242.258 349.72L243.346 349.644L245.749 345.401L246.463 344.35L246.839 344.687L247.491 343.491L248.689 342.003L249.81 340.291L250.632 334.601L251.755 333.206L253.251 332.118L255.107 331.375L257.1 331.453L258.646 332.44L259.085 334.555L260.494 336.514L262.291 337.969L263.716 339.81L265.301 341.428L265.456 341.776L265.598 341.486L266.356 339.91L267.756 338.221L269.008 335.555L269.9 333.745L269.874 333.206L269.429 331.89L269.96 331.099L270.427 330.176L270.561 328.399L270.933 327.117L270.614 326.84ZM176.771 372.387L176.31 371.753L175.863 370.16L175.681 369.007L175.289 368.788L174.887 368.407L174.656 367.736L173.9 367.863L172.978 369.328L172.516 370.37L172.101 370.086L172.024 369.203L172.299 368.145L172.851 366.593L172.445 365.531L171.197 365.872L170.479 366.796L169.793 368.109L168.717 369.504L168.18 370.982L168.871 372.35L170.044 373.063L171.184 373.2L173.133 372.573L176.693 373.512L177.527 373.303L177.092 372.643L176.771 372.387ZM192.755 392.814L192.397 392.777L192.39 392.184L189.899 390.853L189.366 390.984L189.052 391.289L189.021 391.811L188.809 392.246L188.777 392.726L189.123 392.99L189.417 393.056L189.763 393.401L189.841 393.898L189.566 394.509L189.641 394.865L190.11 394.766L190.519 394.38L191.359 393.964L191.972 393.874L192.717 394.041L193.223 393.967L193.563 393.741L194.32 392.807L194.434 392.296L194.237 392.082L192.755 392.814ZM175.982 375.073L173.33 374.629L171.505 375.02L169.569 375.78L168.046 376.05L167.097 374.352L165.411 373.786L164.739 373.318L164.297 372.444L163.932 370.763L163.611 370.1L165.379 368.251L166.072 367.043L166.18 365.782L165.572 364.583L164.528 363.648L163.336 363.28L162.297 363.784L161.036 364.773L160.574 365.38L160.204 367.501L159.728 367.82L159.114 367.933L158.513 368.376L157.608 370.1L157.397 371.788L157.684 373.497L159.858 380.576L160.029 381.793L160.049 382.632L160.163 383.341L160.652 384.204L161.37 384.674L162.548 385.08L163.664 385.045L164.143 384.204L164.406 382.204L165.104 380.589L166.136 379.875L167.428 380.576L168.314 384.447L169.097 386.302L170.377 386.131L171.837 385.454L173.082 385.999L174.233 386.693L175.445 386.468L175.771 385.493L175.104 383.548L175.732 383.193L176.182 382.701L176.245 381.571L176.027 379.594L176.258 378.342L176.693 377.325L176.924 376.364L176.522 375.276L175.982 375.073ZM189.816 377.007L190.052 376.715L189.994 376.037L190.393 375.828H191.237L191.551 375.313L191.108 374.567L189.931 373.248L188.938 373.017L187.88 373.817L187.342 374.699L187.247 375.218L187.746 375.967L188.61 376.57L189.072 376.797L189.816 377.007Z" fill="#F6A555" stroke="white"/>
<path d="M43.5628 96.6185L43.4094 95.6716L42.653 94.8128L41.6725 94.037L40.5951 93.1253L40.0961 92.5663L39.7187 91.9104L39.6288 91.5665L39.3855 89.7432L39.2691 89.3218L39.0786 89.0185L38.7842 88.8527L38.3274 88.9656L37.8866 89.3394L37.5022 89.849L37.2589 90.3322L36.8092 92.2031L36.483 92.9913L35.7918 93.6226L41.1347 97.7929L42.7288 97.6942L43.5628 96.6185ZM51.6989 135.324L49.8985 135.165L48.509 135.908L47.8619 136.809L47.7137 138.089L47.8936 139.336L48.4067 139.658L49.0521 139.593L49.6605 140.044L50.5527 139.826L51.2387 139.022L51.3022 138.415L51.6284 137.763L52.4748 137.472L52.8204 137.063L52.5136 135.867L51.6989 135.324ZM56.0121 99.9724L55.5695 98.9091L55.1339 98.3748L55.3896 97.5407L55.1339 93.9629L54.9664 93.2258L54.2364 91.8822L54.0565 91.2103L54.1464 90.6108L54.5555 89.2618L54.6455 88.4595L54.2434 86.8584L53.2366 85.8462L50.7062 84.5696L49.5141 83.4745L48.3292 82.0674L47.0737 81.1592L45.6383 81.5313L43.7797 83.6932L43.018 83.9806L42.6917 85.0545L42.7676 89.7714L42.4801 90.8418L42.653 91.6547L45.4584 97.0153L45.8622 97.5566L46.3048 97.8617L46.393 98.3431L45.7282 99.3905L45.1516 99.7749L42.7288 100.41L44.344 102.573L45.8816 103.293L50.0202 103.067L50.3217 102.88L50.648 102.545L51.0712 102.395L51.6672 102.758L52.4924 103.656L52.9668 103.875L53.5698 103.806L54.358 103.115L55.2415 101.02L56.2607 100.41L56.0121 99.9724ZM107.437 110.614L106.338 111.17L105.142 111.965L105.167 113.76L105.802 114.472L104.451 116.319L103.702 117.615L101.66 118.83L99.4151 119.353L97.1033 120.515L96.2005 118.44L94.2309 118.897L92.2788 119.505L90.8946 120.3L89.4557 120.535L86.0789 120.42L83.7671 117.378L81.4889 116.692L79.9195 115.657L79.5034 112.81L77.9428 110.579L76.079 108.297L77.2586 105.76L79.4628 105.901L81.9862 107.44L83.8571 106.804L85.5252 105.788L85.6557 104.077L86.1106 102.501L89.6426 102.162L91.4571 99.8507L92.5627 97.5019L94.1339 95.8197L96.5902 95.2308L99.4221 95.4618L100.773 97.7911L101.293 100.955L102.117 103.166L102.164 105.592L101.439 108.405L103.596 108.378L105.444 107.712L107.047 107.689L107.648 109.133L107.437 110.614ZM156.851 111.057L155.678 110.053L153.807 109.845L151.887 109.115L149.235 108.759L144.809 106.306L142.815 105.49L140.838 104.187L138.665 103.852L136.558 104.518L134.809 103.041L134.947 101.431L135.775 99.7414L136.102 97.7823L136.126 95.765L134.044 96.4386L133.107 95.2255L135.403 92.5258L135.019 90.7272L134.386 88.9391L134.841 87.5831L134.816 85.9626L134.663 84.4267L138.657 81.4749L140.275 80.9459L141.178 79.5564L141.586 75.5112L139.723 72.6493L138.193 72.3372L136.736 71.6654L135.638 68.7135L133.897 68.6271L132.033 68.7506L130 67.2623L129.031 64.619L128.632 59.918L127.876 57.5498L127.347 57.0913L126.729 57.1953L126.313 57.5991L125.793 57.6732L124.451 56.7228L121.162 57.8883L118.144 57.1548L116.925 56.4089L115.678 55.2839L115.64 53.3953L116.25 51.6179L116.696 50.9408L117.013 50.2918L116.493 49.8528L115.825 49.6941L115.192 49.8281L114.638 50.2566L113.596 51.6126L112.434 52.794L110.642 53.1008L109.064 52.0252L108.771 51.0483L108.65 50.0591L108.08 49.7082L107.477 50.3447L107.274 51.364L107.258 54.6579L106.232 56.2643L103.344 54.8959L100.699 52.5013L99.7713 51.5244L98.7962 51.6496L97.9251 50.3818L97.3802 48.7313L96.6643 47.8655L95.809 47.1795L95.1513 45.6066L93.9787 44.859L91.2049 43.0939L89.6444 42.3268L88.6745 43.5664L87.6042 46.2203L86.0048 50.1825L84.707 51.6849L81.6723 54.0425L80.2969 55.4426L73.5732 65.7388L70.4398 68.2427L68.4102 69.0168L66.9536 69.1755L66.0067 69.8703L65.5906 72.2473L66.1372 80.8242L66.139 80.8224L67.331 80.0078L68.1069 79.8985L68.6958 80.6391L67.8688 82.2331L67.5109 84.2327L67.6008 85.3701V85.3719L67.6643 86.2218L68.4084 87.7824L68.7417 89.2742L68.3502 91.3884L67.0312 94.9186L71.5665 98.1967L73.046 99.7308L71.1433 99.6127L68.0804 98.3219L65.6664 96.2941L65.6981 93.9629L66.1266 92.6757L66.2412 90.7924L66.0878 88.9568L65.6981 87.7824L64.6472 87.077L63.6209 87.2798L62.4694 87.8229L61.0852 88.1227L56.7474 86.5674L55.7035 86.7614L55.3949 88.1068L56.5305 96.287L57.3751 99.4187L57.6996 101.424L57.7172 102.764L58.6165 103.645L59.4294 105.037L60.1259 106.19L60.7414 107.659L61.124 108.532L64.7107 108.405L68.747 108.262L73.3863 112.723L73.3775 115.067L74.2239 117.012L75.4935 117.846L76.2412 119.075L75.5006 121.519L74.3791 123.691L73.3458 124.456L72.7586 124.888L70.2775 125.615L69.2407 126.664L67.7136 128.886L67.8953 130.029L71.3214 132.635L73.7884 133.416L75.2784 133.714L76.2218 133.767L77.1705 133.465L78.3466 133.681L78.8457 134.433L79.9389 134.393L80.676 134.61L81.2861 135.014L81.7657 135.613L82.136 136.423L80.4009 136.676L79.1701 135.931L78.0821 135.779L76.7561 137.766L76.3646 139.888L75.9802 140.817L75.155 141.143L74.4038 140.769L74.0194 139.939L73.9242 138.868L74.0194 137.766L72.8097 138.362L71.7781 138.027L70.7343 137.38L69.484 137.034L67.9535 137.429L67.0806 137.477L66.5057 137.034L66.005 137.509L65.781 137.666L65.4283 137.766L66.0631 138.999L66.5886 140.325L67.1388 141.388L67.8371 141.818L69.9443 141.524L70.1964 141.862L69.2407 143.169L68.4454 143.615L67.3504 143.989L66.3894 144.557L65.9679 145.558L66.2166 146.909L66.9466 147.137L69.2407 146.608L68.0804 148.248L67.6008 149.131L67.569 150.039L68.0804 150.545L68.9268 150.573L69.8367 150.249L70.5614 149.669L73.3669 146.624L74.8852 145.537L76.7561 144.582L76.749 145.788L77.1528 146.567L77.9023 147.01L78.9215 147.218L80.5561 145.8L81.6511 145.2L82.136 145.558L82.0161 147.387L81.5735 148.047L79.4469 148.625L77.4544 148.657L76.1125 149.17L74.8605 149.775L73.7725 151.27L72.8608 152.943L73.0143 154.634L72.7286 155.964L73.0707 156.944L73.046 158.062L76.6714 159.154L78.1914 158.766L79.6956 158.452L80.4397 159.198L81.1891 158.801L81.5541 157.08L81.6952 155.493L82.1184 153.924L82.8026 153.012L83.6949 153.412L83.1182 156.017L83.8994 157.934L84.975 159.607L85.3083 161.485L84.6294 160.956L83.8606 160.691L83.0213 160.644L82.136 160.76L82.8802 161.33L83.2064 161.485V162.099L78.493 162.619L79.5563 165.252L82.3494 168.001L85.4423 169.81L88.0503 170.175L89.8842 169.573L90.4538 168.884L90.2034 165.837L90.9158 164.83L95.6239 163.508L95.4176 164.65L94.8991 164.994L94.2009 165.1L93.1058 165.708L92.702 165.692L92.2788 165.745L91.8556 166.142L91.9967 166.347L92.7267 167.119L92.8819 167.546L92.3441 169.933L91.4906 170.896L90.3056 171.455L89.3005 172.224L89.3252 172.229L92.9947 172.986L96.0788 172.987L102.621 170.185L106.021 171.739L109.064 174.297L112.783 174.8L116.313 173.763L119.658 172.15L122.279 171.27L122.986 168.371L124.271 166.976L126.29 166.103L127.241 164.869L127.891 163.231L129.113 161.933L130.651 162.256L131.099 162.85L133.076 161.467L136.835 154.467L137.216 153.629L137.673 152.859L138.283 152.365L138.918 151.922L139.552 150.968L140.106 149.917L144.377 142L147.875 133.393L152.725 123.032L153.328 120.808L152.871 118.579L153.904 116.775L155.361 114.998L156.923 114.349L157.745 112.582L156.851 111.057ZM61.9246 137.678L61.5084 137.26L60.0078 136.631L59.0856 136.1L58.7594 135.324L58.9904 134.465L58.74 134.384L57.6326 135.359L56.3383 134.731L56.1637 134.933L56.735 135.588L57.3169 136.602L57.7401 138.064L57.7084 139.247L56.6821 140.418L57.0419 140.993L56.9272 141.661L56.0685 142.827L56.0491 143.326L57.8759 143.097L61.8928 139.891L62.309 138.981L62.115 138.137L61.9246 137.678ZM23.5859 138.297L23.0234 137.835L22.4714 136.897L21.8384 136.458L21.2618 137.26L20.8192 138.595L20.5758 140.214L20.5688 140.566L20.8968 140.679L21.4522 140.365L21.6638 140.3L21.8684 140.804L22.3815 141.697L23.1644 142.056L24.0867 141.914L24.7973 141.614L25.7971 140.591L26.1233 139.979L25.5273 139.32L23.5859 138.297ZM38.6413 87.3539L40.0379 86.146L40.5581 84.3791L39.8281 83.5521L38.3856 83.3246L36.8357 83.3493L35.3615 82.4482L34.099 82.1238L32.9916 82.4253L32.0235 83.3652L31.1207 86.1125L30.9478 86.4528L31.2617 87.5355L32.0235 87.5144L32.9087 87.0453L33.6317 86.7614L36.9132 87.4667L38.6413 87.3539Z" fill="#F6A555" stroke="white"/>
<path d="M73.7318 423.628L72.2911 422.2L72.046 421.387L71.6175 420.803L71.3671 420.105L71.1502 418.596L70.4202 416.757L69.4838 415.651L68.6392 415.074L67.7346 414.776L66.3504 414.917L65.8972 415.021L65.0508 415.43L64.4301 416.349L64.1145 417.552L64.051 418.754L64.1286 419.934L64.3596 420.971L64.9097 421.669L65.832 422.274L66.8582 422.558L67.6764 422.343L68.3571 422.526L68.5493 423.228L67.8175 423.787L67.8316 424.402L69.3111 424.923L70.5031 425.203L71.1943 425.52L71.5717 425.298L71.6492 424.741L71.9825 424.676L72.5856 425.065L73.2909 425.372L73.6736 425.482L74.0597 425.536L74.3278 425.281L73.8852 424.217L73.7318 423.628ZM79.7342 411.911L79.3639 411.34L78.3835 411.17L76.7488 411.556L75.1936 412.42L74.0844 413.888L73.5395 415.09L73.1745 415.651L72.8871 416.217L73.2327 416.57L73.6171 416.598L73.9945 416.876L74.162 417.709L74.1479 418.693L74.661 419.29L75.0842 418.992L75.3135 417.968L76.0453 416.984L78.1207 416.016L78.5175 415.43L79.1911 415.263L80.8045 415.758L81.3812 415.661L81.3106 415.08L80.7851 414.314L80.1838 413.639L79.4538 413.193L79.3886 412.964L79.7994 412.54L79.7342 411.911ZM66.4985 438.479L65.6979 437.294L65.832 436.571L66.5814 435.924L66.3962 434.993L65.0631 434.309L64.3913 434.302L64.3525 434.626L63.6983 435.254L63.8517 435.691L64.3719 436.174L64.1991 437.4L63.6983 439.594L63.8711 440.87L64.2749 440.96L64.654 441.262L64.7951 441.703L65.1989 441.942L65.973 441.731L66.3698 440.983V440.024L66.4862 439.46L66.8318 439.403L67.0822 439.118L66.8124 438.654L66.4985 438.479ZM61.7833 432.302L61.3742 431.995L60.5278 431.555L58.8879 431.276L58.2778 430.946L57.6571 430.745L57.3943 430.973L57.7981 431.636L57.8493 431.907L57.6641 432.114L57.3749 432.256L57.3114 432.466L57.4649 432.694L57.4331 432.985L57.2021 433.41L56.7983 434.549L56.8759 434.866L57.2462 434.944L57.5795 435.064L57.7347 435.446L58.3554 436.028L59.5527 436.354L59.9512 436.019L59.5668 435.339L60.2016 435.206L61.3478 435.145L61.6228 434.06L62.1677 433.6L62.1042 432.768L61.7833 432.302ZM80.8116 423.694L81.2083 423.344L81.9384 423.209L82.619 423.341L83.111 422.798L83.1886 422.133L83.3103 421.809L83.7652 421.272L83.9186 420.576L83.2256 420.167L82.1112 419.897L81.233 419.804L80.8998 419.865L80.5682 419.888L79.9969 419.737L79.5367 419.384L78.7344 419.585L77.6711 420.454L76.8 420.819L76.0823 420.482L75.4616 420.385L75.1724 420.525L74.8268 420.726L74.0386 420.959L73.2327 421.064L73.3403 421.387L75.0842 422.158L75.384 422.355L75.6855 422.51L76.442 422.517L77.3836 422.186L78.1913 422.064L78.7996 422.325L79.2228 422.902L79.3833 423.635L79.7677 424.185L80.4783 424.037L80.8116 423.694ZM41.1733 401.779L41.1028 400.952L39.3218 402.075L38.9621 402.191L38.4366 401.768L38.0592 401.11L37.8282 400.509L37.636 400.239L36.7967 399.795L35.6699 398.897L34.3686 398.185L33.0937 398.278L32.5682 399.072L34.5925 400.67L35.1956 401.865L34.7159 403.318L33.5997 404.053L32.3513 403.925L31.4291 402.791L31.2104 404.143L30.6408 404.566L29.8914 404.695L29.045 405.161L28.315 405.977L27.853 406.712L27.1424 408.776L24.9452 408.94L22.7022 411.519L21.7218 414.706L23.3741 416.66V414.641L25.6435 416.069L26.0667 416.66L25.841 417.148L25.2591 417.73L24.8165 418.43L24.9893 419.259L25.9045 419.491L29.2178 419.213L30.1224 418.903L37.6166 414.812L37.9376 413.283V412.683L38.5583 413.073L39.9037 414.346L40.0395 414.641L40.8206 414.113L41.4484 413.103L42.9984 409.779L43.4216 408.358L43.6332 406.889L43.5115 405.575L41.1733 401.779ZM60.7447 437.016L60.2968 436.889L59.4116 436.873L58.7592 437.074L58.2989 437.016L56.7419 436.019H55.5428L54.1463 436.996L53.4533 438.409L53.5115 439.849L54.3508 440.964L55.8567 441.029L57.0417 440.313L57.8246 439.606L58.7027 439.01L58.9708 438.499L59.394 438.084L60.1311 438.065L60.847 438.46L61.1432 438.576L61.2825 438.204L61.5646 438.25L61.8927 438.548L62.0848 438.127L61.4307 437.307L60.7447 437.016ZM85.1812 434.249L84.3859 433.112L83.0405 432.768L81.9207 433.321L81.3618 433.856L81.0549 434.575L80.9262 435.483L80.4395 436.469L80.7605 437.933L81.0549 438.107L81.323 437.631L81.8432 437.569L82.5538 438.213L83.4196 438.659L84.5904 438.56L85.5144 438.061L86.0135 437.174L86.2057 436.663L86.4102 435.471L85.9359 434.937L85.1812 434.249ZM21.7994 396.843L21.6513 396.356L21.4714 396.178L21.415 395.344L20.4469 394.799L19.8756 394.203L18.9163 393.429L18.3203 393.877L18.8194 395.485L19.6076 396.75L19.992 397.707L19.6023 398.64L18.7047 399.329L17.5638 399.365L16.4741 399.532L16.0527 400.036L17.8019 400.426L17.8777 400.752L17.4104 401.11L17.0119 401.511L16.5323 401.535L16.0774 401.694L16.3595 402.184L17.2694 402.447L18.1281 402.316L19.6781 401.394L20.3376 400.768L20.9724 400.299L21.415 399.82L21.4855 398.897L21.7289 397.836L21.7994 396.843ZM89.6759 343.08L84.8179 342.304L80.5295 339.73L78.3729 334.988L80.0745 333.378L82.8976 334.13L84.9643 333.659L87.1191 333.01L91.1801 334.537L92.7741 338.944L89.6759 343.08ZM155.491 361.209L155.5 359.423L154.442 356.815L149.535 351.467L148.69 349.693L148.006 347.66L146.249 345.814L144.311 344.401L143.246 342.486L142.911 337.367L142.123 334.9L140.504 332.989L140.926 330.885L136.436 327.261L131.398 325.436L128.542 327.03L126.25 329.503L123.783 329.846L121.171 329.868L118.316 330.25L115.419 330.199L114.075 329.413L112.88 328.489L111.497 328.843L109.861 328.82L107.486 329.213L105.223 330.569L102.294 330.134L100.399 328.113L100.505 324.92L98.9018 323.109L98.4221 321.317L99.1204 318.531L97.5352 316.112L95.2164 316.239L94.6468 317.231L93.8727 317.976L93.3684 319.254L93.1815 320.631L90.748 320.661L87.0556 315.65L84.6469 313.675L83.2714 313.089L81.8396 312.989L80.5295 314.546L77.8598 314.283L75.883 316.061L75.876 317.367L75.9483 318.674L75.2253 319.774L74.2325 320.504L74.289 321.536L74.4424 322.521L73.7847 323.888L72.7425 324.794L71.457 325.415L70.1063 325.808L68.9672 326.501L67.9092 327.284L65.273 327.679L62.7761 328.587L60.4326 329.175L58.4718 328.515L58.5864 325.898L59.0889 323.301L59.5456 319.769L57.2744 319.157L49.6268 321.294L47.9992 321.82L47.9869 321.823L49.4945 323.541L49.6868 324.248L48.9832 324.294L47.5919 323.87L46.4387 322.37L45.9784 321.892L44.2486 324.535L43.5626 326.02L43.2929 327.522L43.4269 328.189L43.679 328.799L43.806 329.43L43.5362 330.16L43.0248 330.718L42.5187 331.109L42.0567 331.619L41.6723 332.49L42.2878 332.611L42.5769 332.804L42.8256 333.024L43.2929 333.206L41.8645 333.553L40.2299 333.645L38.7893 333.976L37.9129 335.062L40.1541 335.036L41.198 334.867L42.2119 334.468L42.0567 335.799L42.4605 336.565L43.2929 337.154L43.12 338.044L42.7497 338.564L42.383 338.959L42.2119 339.43L42.8062 340.821L45.3877 343.844L46.1953 346.004L46.7155 346.533L47.3433 346.886L48.8227 347.258L49.2071 347.873L49.2459 349.589L49.0396 351.114L47.0541 355.618L46.2147 354.752L45.6504 353.772L45.5235 352.715L45.9784 351.618L45.3824 351.28L44.0564 351.231L43.2929 350.963L42.3512 350.398L42.0638 350.086L41.9862 349.539L41.6723 348.273L41.429 348.108L41.064 348.245H40.7501L40.5949 347.674L40.6919 347.117L41.0446 346.217L41.2562 344.438L41.1539 343.514L40.5949 342.417L39.9619 344.618L39.4047 345.724L38.4049 346.365L37.7771 344.842L36.3488 344.108L34.7406 344.325L33.6068 345.644L33.8889 347.244L35.9132 349.936L35.1762 350.963L36.2906 352.426L37.405 352.387L37.9499 351.149L37.3274 348.989L38.8334 349.506L40.2176 350.776L42.4605 353.884L43.0442 355.9L40.8471 358.085L41.0834 360.15L39.1173 359.732L38.2321 359.684L37.3274 360.15L37.7136 361.017L38.2003 361.733L38.7893 362.331L39.4823 362.828L39.1543 362.969L38.4049 363.484L39.3923 364.136L40.7695 364.586L42.1908 364.489L43.2929 363.484L43.2682 362.585L42.8838 361.483L42.7674 360.546L43.5362 360.15L44.1322 359.934L44.5554 359.457L45.0809 359.002L45.9784 358.838L47.9446 359.305L47.4826 360.15L45.9961 361.171L44.901 362.177L44.7476 363.757L45.2149 365.637L46.0737 367.242L47.0541 368.016L46.0349 368.913L45.7668 369.62L45.9784 371.054L45.9467 371.798L45.8109 372.452L45.4847 373.145L44.901 374.027L43.2929 375.635L42.7286 376.587L42.9984 377.605L43.8254 378.026L45.5235 377.464L46.6027 377.483L46.7331 376.494L47.3997 376.178L49.4945 376.644L50.5332 376.321L51.2244 375.713L51.9421 375.394L53.0124 375.939L52.6862 376.446L52.263 377.446L51.9421 377.958L52.4358 378.331V378.554L53.9999 378.413L54.8181 377.298L55.7033 374.027L56.6449 372.139L56.7789 372.01L56.6643 371.142L56.1459 369.527L56.2411 368.73L57.1069 367.534L58.2778 366.984L59.3622 367.312L59.9953 368.73L59.9706 369.726L59.625 370.312L59.2071 370.779L58.9196 371.414V372.412L59.1242 373.068L59.2265 373.701L58.9196 374.628L63.0071 374.262L64.7951 374.59L65.9677 375.939L65.146 375.898L64.4936 376.034L63.2751 376.644L63.8341 377.862L61.9879 377.727L58.3818 376.644L56.4527 377.125L55.5111 378.358L55.3577 380.042L55.7033 381.886L55.3383 381.747L55.1267 381.578L54.9345 381.384L54.6276 381.174L53.4162 381.408L49.8155 378.753L46.8231 380.091L44.4778 379.724L43.374 380.176L42.249 381.588L42.4888 382.498L44.3085 383.1L46.2905 382.562L47.897 383.606L50.2246 383.454L52.1854 383.847L53.6137 384.526L56.19 387.829L57.8951 389.075L57.3168 389.79L59.6814 391.869L61.0268 392.722L62.6861 393.002L61.0392 393.424L58.7697 392.699L56.8935 391.673L55.437 390.834L54.4584 391.047L56.1071 393.228L55.765 393.65L54.9309 393.101L53.8341 392.311L52.9807 391.484L51.5682 390.923L50.542 390.253L50.0659 389.606L49.2459 389.075L49.059 388.499L49.0907 388.13L49.0731 387.744L49.2794 386.499L48.8509 385.734L45.5517 385.013L43.3969 385.226L43.8518 386.9L43.2523 388.261L43.4956 390.652L43.9894 392.44L44.8076 392.366L45.3101 391.012L46.3487 390.821L46.0701 393.02L47.0735 394.023L47.837 395.217L49.4558 395.57L49.9248 395.804L50.8082 395.672L50.1681 397.333L49.2653 397.416L47.5919 396.259L43.6896 395.605L42.711 395.018L41.0834 390.444L40.8277 389.391L40.6919 388.414L40.9229 387.455L41.6723 386.468L39.2707 382.865L38.7522 381.722L38.2902 381.408L37.6748 381.232L37.0859 381.174L36.444 381.486L36.3294 382.234L36.3929 383.122L36.31 383.847L35.483 385.979L34.797 389.046L34.9328 391.802L36.5657 393.002L38.6746 394.038L39.0009 395.018L38.4295 395.476L37.6431 395.464L37.3274 395.018L37.0224 395.547L36.7015 395.676L36.5657 395.953L36.8355 396.914L37.04 397.011L38.6746 398.575L39.1737 398.769L39.8085 398.64L40.3657 398.317L40.5949 397.95L40.833 397.337L41.3073 397.801L41.697 398.571L41.6723 398.874L43.5432 399.795L44.2168 400.675L44.3632 402.191L45.5235 401.733L46.4457 401.569L48.1297 401.539L48.8985 401.671L49.5721 401.694L50.2704 401.539L50.5402 400.675L50.8664 400.021L51.3461 399.585L51.8786 399.601L52.8978 400.23L53.5502 400.239L54.0493 399.901L54.7617 399.014L55.1143 398.874L56.0753 399.407L56.0489 400.301L55.2801 401.322L54.0387 402.191L54.781 402.447L55.3965 402.845L55.8832 403.413L56.2411 404.15L54.2803 404.196L52.1854 404.602L50.616 405.76L50.2704 408.065L51.533 407.647L51.674 408.275L51.3796 409.453L51.3461 410.675L51.168 410.811L50.937 411.281L51.0516 411.798L51.898 412.033L53.0706 412.172L53.6472 412.373L54.0387 412.683L54.3385 413.658L54.1269 414.632L53.0124 416.66L52.6739 416.892L52.3194 416.776L52.0514 416.827L51.898 418.328L51.764 418.709L51.3461 419.259V419.853L53.4039 419.749L54.3966 419.946L55.1143 420.564L55.2607 421.646L54.5183 423.939L54.6276 425.062L55.5375 425.249L59.163 424.053L61.085 424.466V423.364L61.2455 422.44L63.1605 416L63.4744 415.381L64.3525 414.641L66.6836 414.05L67.299 413.635L67.7029 412.692L67.7152 411.981L67.9268 411.542L68.9654 411.387L69.3498 411.491L70.0799 411.934L70.5613 412.033L70.8169 411.823L70.9069 411.355L70.8293 410.888L70.5613 410.675L69.3886 410.211L70.5225 409.165L73.5395 407.413L71.778 405.17L71.4641 404.004L73.8922 403.191L73.8658 402.385L73.3667 401.236L73.0458 399.913L73.3085 399.001L73.968 397.966L74.8268 397.157L75.6785 396.914L76.576 397.585L77.0945 398.874L77.1914 400.345L76.7559 401.539L77.0574 403.413L76.7294 408.252L77.3448 410.08L78.0361 410.502L81.0602 411.387L83.2644 412.96L84.2836 413.283L83.841 412.167L83.8022 411.142L84.1302 410.206L84.8214 409.37L86.9181 410.419L87.6534 409.763L87.5123 405.815L91.8554 401.539L91.2665 400.294L91.6315 399.273L92.3615 398.419L92.8817 397.633L93.0281 396.517L92.9893 395.461L93.125 394.671L93.721 394.364L94.6821 394.112L95.6819 393.528L97.2389 392.339L100.12 390.654L100.755 390.116L102.178 388.236L103.042 387.441L103.971 387.113L105.945 387.522L106.906 387.573L108.039 387.113L109.142 385.764L110.73 381.676L111.845 379.922L113.786 383.061L115.209 384.249L116.927 383.521L118.418 382.355L118.976 383.126L119.399 384.833L120.496 386.468L119.879 387.464L118.803 389.777L118.292 390.444L117.073 390.899L116.17 390.603L115.498 389.73L115.024 388.479L115.44 387.57L115.304 386.82L114.767 386.237L113.947 385.804L111.679 388.317L111.256 389.075L111.326 390.527L111.794 391.264L112.402 391.897L112.864 393.002L112.89 395.827L111.737 397.423L109.808 398.127L107.502 398.278L108.655 395.485L109.039 393.935L109.115 392.339L107.969 392.9L107.406 393.609L106.426 395.672L104.837 397.778L104.273 398.278L102.524 399.317L102.023 400.135L102.12 401.539L102.85 402.911L103.908 403.466L105.144 403.708L106.426 404.15L106.202 403.769L105.886 402.791L109.008 401.158L109.91 400.952L112.864 404.15L113.973 406.432L117.189 410.687L119.367 410.675L118.362 409.58L118.124 407.915L120.392 406.192L121.834 406.854L123.16 404.969L126.895 401.539L125.257 400.142L122.264 400.923L121.598 400.481L120.496 400.239L119.552 398.255L119.367 397.95L119.822 397.22L120.898 396.45L122.166 395.866L123.185 395.672L124.338 396.044L127.919 398.278L128.893 398.033L130.43 398.107L131.242 397.418L131.963 396.697L131.739 394.704L131.302 393.644L127.919 392.339L128.508 392.207L129.893 392.216L130.7 392.339L129.016 389.918L126.556 388.337L124.282 386.295L123.185 382.484L123.403 382.227L123.827 382.117L123.992 381.782L123.435 380.869L122.647 380.53L121.168 381.126L120.496 380.576L120.783 379.271L122.474 378.319L125.819 377.25V376.644L124.146 376.154L122.114 375.265L121.078 374.41L122.36 374.027L125.761 374.113L127.323 373.92L130.009 372.969L130.413 372.923L130.681 372.736L131.199 372.01L132.546 368.589L132.814 368.376L132.987 367.975L133.354 368.099L133.719 368.518L133.89 369.058L133.814 369.55L133.467 370.486L133.398 371.054L133.603 371.99L134.795 374.505L134.564 374.872L134.428 375.448L134.467 375.939L134.853 376.353L135.313 376.422L135.756 376.434L136.082 376.644L137.33 379.349L137.965 380.248L138.33 381.867L137.588 383.754L136.562 385.75L136.082 387.776L136.466 389.918L137.369 391.333L138.773 392.107L140.656 392.339L141.945 393.694L142.758 394.145L143.116 393.352L142.539 389.075L142.079 387.73L141.464 386.468L141.855 386.365L141.963 386.191L142.079 386.162L142.539 386.468L143.982 383.302L145.736 383.676L147.928 384.775L150.697 383.847L151.349 382.742L152.254 377.958L153.033 375.246L153.29 373.904L153.379 372.01L151.901 372.802L150.556 372.717L149.113 372.435L147.422 372.662L144.982 374.955L144.001 375.572L143.174 375.173L142.289 374.027L141.04 373.223L139.644 371.312L138.425 369.116L137.695 367.418L137.607 365.813L138.029 363.89L138.887 362.664L140.118 363.156L141.605 366.187L142.79 367.206L144.444 366.469L147.422 364.085L148.152 363.242L148.466 362.636L149.037 360.865L148.863 360.361L148.729 359.213L148.94 358.473L149.843 359.192L150.305 360.121L150.497 360.853L150.921 361.343L151.982 361.521L155.174 361.491L155.69 361.634L155.491 361.209ZM132.462 408.287L131.739 408.324L131.026 409.033L130.661 409.125L130.642 408.878L129.54 408.598L128.951 408.255L128.394 408.016L128.009 408.232L128.143 408.659L128.194 409.195L127.914 409.911L128.438 410.303L129.297 410.851L129.087 411.232L129.452 411.724L130.245 411.981L130.778 412.54L130.81 413.357L131.257 413.611L132.513 413.228L133.948 412.295L134.544 411.655V411.093L134.192 410.144L132.462 408.287ZM153.957 404.759L153.322 404.641L153.285 404.298L153.424 403.63L152.232 401.306L151.208 400.543L149.767 400.738L148.441 401.371L148.018 402.188L148.575 402.861L149.222 403.21L149.607 403.801L149.959 404.614L150.728 405.208L151.874 405.593L152.604 406.002L152.862 406.386L153.028 406.552L153.67 406.527L154.648 406.187L154.821 405.593L154.477 405.046L153.957 404.759ZM99.5242 420.225L99.0446 419.61L98.7766 419.176L98.4098 418.853L97.6216 418.941L96.5459 419.283L95.9305 419.012L95.636 418.151L95.1229 417.381L94.5657 416.838L94.3171 416.753L94.3805 417L93.5994 417.652L92.8694 418.538L92.4144 418.848L91.8307 418.964L91.6456 419.144L91.8695 419.294L92.3809 419.47L93.7017 419.594L94.2271 419.913L94.4123 420.393L94.1813 420.773L95.9058 421.13L96.1862 421.511L95.6872 421.844L95.2957 422.436L95.3733 423.279L96.1809 422.914L97.5722 421.821L98.1418 421.25L97.6604 420.974L97.4558 420.715L98.0201 420.495L98.8013 420.668L99.4678 421.006L99.9474 420.904L99.794 420.458L99.5242 420.225ZM109.679 406.787L108.399 406.69L105.939 406.982L103.363 407.458L102.108 407.972L101.018 408.776L101.755 409.273L102.062 409.701L101.986 410.144L101.556 410.675V411.387L103.441 412.651L104.363 413.103L105.618 413.283L108.866 412.683L110.321 412.085L111.358 410.632L111.614 408.858L110.757 407.307L109.679 406.787ZM117.112 451.547L116.65 451.138L115.65 449.475L115.516 448.495L115.786 447.613L115.594 447.206L115.477 447.243L115.267 447.488L114.901 447.606L114.613 447.509L114.363 447.59L114.305 447.985L114.343 448.426L114.229 448.807L114.421 449.456L114.664 449.758L114.959 449.967L115.132 450.761L115.401 451.41L115.594 451.706L116.669 451.956L117.784 452.498L117.881 452.031L117.674 451.706L117.112 451.547ZM32.9914 365.561L33.2859 365.313L33.5415 364.32L33.5239 363.907L33.0619 363.719H31.7165L31.1011 364.055L30.9406 364.969L31.3321 365.836L32.2931 365.866L32.9914 365.561ZM20.946 382.056L21.6654 383.373L21.7994 384.191L22.3566 384.6L22.9456 384.549L23.2207 384.417L23.6439 384.039L24.4903 384.05L25.2203 385.113L26.1425 386.03L27.1424 385.933L27.5973 385.018L27.5656 383.992L27.2958 383.154L27.2199 382.519L27.2764 382.04L26.9942 381.512L26.4688 381.033L25.6999 380.846L24.7654 380.784L24.0724 380.433L23.6051 379.922L22.8698 379.594L21.8752 379.441L21.0359 379.527L20.454 379.829L19.8315 379.823L19.0698 379.622L19.396 380.417L20.946 382.056ZM26.8726 377.452L26.6804 377.055L26.1108 376.275L25.3543 375.939L24.7601 376.431L23.6121 376.931L21.6513 377.254L20.8754 377.905L21.8435 378.476L23.1642 378.966L24.1888 379.848L25.1039 380.37L26.0473 380.121L26.5217 379.613L26.3541 378.319L26.6239 377.702L26.8726 377.452ZM36.6292 368.977L35.6435 369.282L35.5659 369.686L35.3102 369.954L35.028 370.312L33.4269 370.897L32.1785 370.98L31.7553 371.483L32.2349 372.107L33.1712 372.428L34.3368 372.239L35.3684 371.731L37.6942 371.354L38.0204 371.53L40.2176 372.74L40.4239 373.121L40.1735 373.673L39.6745 374.237L40.5191 374.558L42.0638 373.13L41.9033 371.096L40.4115 370.569L39.2953 370.557L38.7893 370.398L38.6817 369.948L38.6359 369.382L38.784 368.936L39.9813 368.139L40.6672 368.049L40.7695 367.483L39.7697 366.476L38.3661 365.766L37.0012 365.438L36.1442 365.882L36.407 366.833L37.0224 367.677L36.9836 368.379L36.6292 368.977ZM20.5757 423.752L20.0502 423.484L18.9163 423.66L16.2061 423.089L15.6154 423.48L15.5783 423.951L15.2451 424.402L15.2962 424.923L15.8464 425.714L17.4739 426.391L17.9729 426.317L18.1087 425.847L18.3768 425.834L18.7047 426.346L19.0504 426.51L19.4929 426.141L20.2547 426.042L20.6268 425.497L20.4981 424.81L20.5757 423.752ZM21.7218 371.615L20.9724 371.19L20.0308 371.287L18.8775 371.869L18.6395 372.631L19.1844 373.63L19.8439 374.542L21.0235 375.886L20.9918 376.268L21.1646 376.833L21.8752 376.891L22.7146 376.416L22.9703 375.503L22.9526 374.434L23.4446 373.872L24.2205 373.907L24.7777 373.558L24.9699 372.653L24.5855 371.162L25.6435 370.483L25.5606 369.889L25.1815 369.344L24.7918 369.125L24.291 369.174L23.2595 369.155L22.51 369.889L22.6635 371.014L22.4518 371.592L21.7218 371.615ZM27.9112 353.78L27.8336 353.285L27.6343 352.856L27.3011 352.405L26.6028 352.206L25.5977 352.289L24.9117 351.971L24.4056 352.049L23.7973 352.453L23.6509 352.888L23.9913 352.989L24.3422 352.925L24.5661 353.052L23.9965 353.486L24.1059 353.697L24.4956 353.685L24.7971 353.839L24.9117 354.256L25.2908 354.297L25.714 354.085L26.0332 354.304L26.7385 355.085L27.1618 355.247L27.5585 355.023L27.8918 354.718L27.9112 353.78ZM26.0844 348.457L26.9308 350.434L27.354 350.954L27.8018 351.181L28.1422 351.49L28.4807 351.56L29.172 351.627L29.6216 352.019L31.6389 352.359L32.1785 352.523L32.0304 352.992L32.018 353.835L32.3319 354.401L32.7163 354.895L33.6315 355.106L33.836 355.408L34.1446 355.156L34.4532 354.226L34.3121 353.491L33.9136 352.95L33.6773 352.098L33.21 351.432L32.3901 351.375L31.6583 351.044L30.7943 350.151V349.638L31.1011 349.282L31.8258 349.236L32.3689 348.684L32.1714 348.058L31.6847 348.199L31.3003 348.213L31.1328 347.79L30.6461 347.547L29.8914 347.947L29.2249 348.178L28.4878 347.686L27.5656 347.344L26.5657 347.683L26.0844 348.457ZM13.9384 377.945L13.6492 377.665L13.2719 377.601L12.7464 377.672L10.1701 378.658L8.76122 378.966L7.69087 378.554L6.72984 378.927L5.86581 379.49L5.23806 380.331L5 381.525L5.13578 382.787L5.54488 383.805L6.22377 384.447L7.14599 384.558L8.08234 384.133L8.76827 383.286L9.18971 382.154L9.35018 380.869L9.78572 380.618L10.7732 380.83L11.8488 380.823L12.5295 379.922L12.9262 380.156L13.822 380.409L14.187 380.576L14.1553 378.541L13.9384 377.945ZM13.6686 385.875L12.727 385.02L12.0534 383.785L11.7589 383.59L11.2722 383.84L9.84392 385.804L7.51806 386.739L6.98024 387.48L7.69087 389.075L8.03825 388.949L9.27435 389.474L10.4135 390.144L10.4205 390.444L11.2281 390.518L11.773 390.47L12.3232 390.066L13.5152 388.458L13.8414 387.755L14.0142 387.004L13.912 386.27L13.6686 385.875ZM16.5905 398.784L17.4157 398.73L18.1281 398.488L18.345 397.367L17.6855 396.027L16.8462 394.799L15.8411 392.592L15.1798 393.434L14.8994 395.279L15.2063 398.598L15.8411 399.13L16.5905 398.784ZM16.065 370.102L16.7315 370.342L17.2429 370.788L17.8971 371.038L19.031 370.698L19.9479 369.904L20.5492 368.758L20.7943 367.418L20.6074 366.036L19.9867 364.955L19.1086 364.348L18.3397 364.539L17.9994 365.813L17.7049 366.399L17.0507 366.411L16.3013 366.203L15.797 366.171L14.7196 367.157L13.3036 369.421L12.5295 370.102V370.698L13.4958 370.678L16.065 370.102ZM18.5513 351.842L18.7418 352.054L19.031 352.269L19.7804 352.147L21.8752 352.706L22.2984 352.597L22.5876 351.814L23.2595 350.806L24.1429 349.94L24.9893 349.589L23.9331 347.877L23.5875 346.886L23.6509 345.925L24.2011 345.113L26.5975 343.715L25.3931 343.389L23.7779 343.773L22.3566 344.697L21.7606 346.004L21.3762 346.625L20.5104 347.046L19.5758 347.36L19.031 347.674L18.6148 348.566L17.9994 351.618L18.345 351.677L18.5513 351.842Z" fill="#F6A555" stroke="white"/>
<path fill-rule="evenodd" clip-rule="evenodd" d="M208.395 20.9487L215.346 34.7152L220.766 49.1447L221.651 50.7123L224.475 54.2143L225.557 57.152L238.68 75.9423L243.771 83.3642L249.87 90.1319L250.738 90.8408L254.823 95.6547L255.035 97.6879L255.054 100.13L255.541 102.202L258.327 103.754L259.135 105.42L261.436 112.918L262.461 114.655L263.69 115.394L264.721 116.462L268.304 123.514L270.456 126.224L271.2 127.714L271.487 129.294L272.032 130.825L275.832 135.009L277.043 138.439L278.119 145.924L279.599 150.04L283.635 155.67L283.943 156.85L283.481 157.991L282.751 159.077L282.289 160.142L282.258 161.096L282.827 164.182L283.52 172.983L284.25 177.042L286.864 185.33L287.075 189.384L286.255 193.133L284.479 196.536L283.039 200.57L282.251 200.537L279.623 199.934L277.1 201.052L271.648 199.036L272.519 196.702L272.275 194.512L271.584 192.083L271.372 189.333L272.422 186.723L273.268 184.249L272.649 183.517L271.974 182.875L272.291 180.643L266.523 180.209L264.83 179.246L263.023 178.472L262.284 176.661L261.704 174.566L259.11 173.335L257.491 170.883L257.142 167.693L257.71 165.249L259.054 164.23L260.524 163.678L262.82 164.586L264.684 163.191L263.919 160.918L261.462 159.435L258.768 158.805L256.629 159.938L254.571 160.459L251.665 159.125L248.581 158.604L247.539 159.031L246.677 158.924L246.01 158.028L245.049 157.629L242.813 159.373L240.454 160.301L240.274 158.574L240.468 156.859L239.101 156.178L237.581 155.829L236.474 153.884L234.326 153.715L232.186 154.72L230.756 156.469L231.276 158.895L231.024 161.161L230.558 163.267L228.55 163.078L226.199 162.572L224.252 161.754L222.237 160.682L220.657 159.661L219.063 158.968L217.06 158.735L215.011 158.329L212.935 156.984L211.064 155.564L209.185 155.577L207.289 156.183L205.596 156.483L204.164 156.591L203.595 155.295L202.032 153.669L202.172 152.262L201.389 151.399L197.638 151.828L195.247 152.628L194.531 152.965L193.831 152.949L192.715 152.332L191.853 151.359L193.205 149.262L195.475 147.643L196.384 145.563L194.97 145.136L190.479 144.427L186.085 142.86L184.261 144.268L182.71 145.085L180.828 144.69L179.25 145.91L176.645 147.363L174.036 147.996L173.059 146.624V144.503L170.065 141.329L166.051 142.688L164.565 144.517L164.995 149.317L163.399 150.412L162.872 151.057L162.262 151.59L161.585 151.274L160.918 150.858L158.509 150.691L156.118 151.257L156.792 146.49L148.421 147.636L140.105 149.916L144.376 142.001L147.875 133.394L152.726 123.032L153.327 120.807L152.872 118.578L153.905 116.774L155.362 114.999L156.924 114.35L157.744 112.583L156.85 111.058L155.678 110.054L153.807 109.846L151.886 109.116L149.234 108.758L144.808 106.305L142.816 105.489L140.837 104.188L138.665 103.853L136.558 104.519L134.808 103.04L134.948 101.431L135.776 99.7404L136.101 97.7831L136.127 95.7658L134.043 96.4394L133.108 95.2262L135.403 92.5265L135.02 90.7262L134.385 88.9381L134.842 87.5839L134.815 85.9616L134.662 84.4275L138.658 81.4757L140.276 80.9466L141.179 79.5554L141.587 75.5102L139.723 72.6501L138.192 72.338L136.736 71.6644L135.639 68.7143L133.897 68.6261L132.033 68.7496L130 67.2613L129.032 64.6198L128.633 59.9187L127.875 57.5488L127.348 57.0921L126.729 57.1961L126.314 57.5982L125.792 57.674L124.45 56.7235L121.164 57.8873L118.145 57.1538L116.924 56.4097L115.68 55.2829L115.639 53.3961L116.249 51.6186L116.697 50.9398L117.014 50.2908L116.492 49.8535L115.826 49.6931L115.191 49.8288L114.637 50.2573L113.597 51.6134L112.433 52.7948L110.642 53.1016L109.063 52.026L108.771 51.0491L108.649 50.0581L108.079 49.7089L107.478 50.3455L107.274 51.3647L107.258 54.6586L106.233 56.2651L103.345 54.8949L100.7 52.5021L99.7724 51.5252L98.7955 51.6486L97.9261 50.3808L97.3795 48.732L96.6636 47.8645L95.8101 47.1785L95.1506 45.6056L93.978 44.8597L91.2043 43.0929L89.6454 42.3276L90.1057 41.7404L94.4224 38.1766L99.4391 35.0273L104.715 32.8848L109.793 32.3347L112.297 32.601L122.005 31.751L129.471 34.0204L131.842 33.8018L136.468 32.3964L151.654 31.0633L152.301 31.5041L153.308 32.9607L154.276 33.9411L155.357 34.2197L160.56 33.1229L168.82 33.6043L174.182 33.1793L179.583 31.2502L184.612 27.9933L188.802 23.5938L190.625 20.9822L192.145 18.1926L193.172 15.0909L193.514 11.5219L192.847 8.07806L192.676 6.32178L193.172 5.02043L195.319 3.31528L199.77 1L202.122 5.66052L205.794 12.9343L206.524 16.1225L208.395 20.9487Z" fill="#F6A555" stroke="white"/>
<path d="M230.633 274.241L229.404 275.511L228.809 275.335L228.069 275.4L228.109 276.038L228.005 276.858L227.265 278.801L227.256 279.427L227.02 280.337L225.262 281.404L220.714 280.219L218.168 279.962L217.044 280.849L215.921 282.815L215.318 283.328L214.595 282.73L213.625 282.104L212.234 280.974L211.299 279.165L210.153 278.034L208.931 277.56L208.46 275.765L209.55 274.241L210.73 274.233L212.001 274.026L212.333 273.106L212.479 272.138L211.788 271.882L211.04 271.759L211.885 269.849L213.237 268.361L212.742 263.928L216.441 260.852L221.455 260.177L225.611 259.907L228.769 262.224L229.77 263.968L229.728 264.737L229.347 265.386L229.37 267.844L230.007 268.798L230.851 269.517L231.015 271.06L231.054 272.705L230.633 274.241ZM295.032 255.492L294.743 253.818L293.445 252.785L292.482 254.398L287.48 259.881L285.457 261.468L283.861 261.193L282.604 259.655L281.412 258.317L279.751 256.775L279.823 255.442L281.137 254.358L281.911 254.106L282.733 253.707L283.366 252.852L283.66 251.33L283.239 250.784L282.604 250.339L282.022 247.8L281.567 244.485L281.144 243.993L280.618 243.635L280.137 242.746L279.869 241.147L280.2 229.348L280.618 227.414L281.567 225.756L284 222.808L284.48 221.013L284.967 212.658L284.538 208.608L283.463 204.589L283.057 200.734L283.039 200.57L282.249 200.537L279.622 199.934L277.1 201.052L271.648 199.036L272.519 196.702L272.274 194.51L271.585 192.083L271.373 189.333L272.421 186.723L273.269 184.249L272.65 183.517L271.973 182.875L272.292 180.641L266.524 180.211L264.831 179.246L263.024 178.47L262.283 176.661L261.705 174.566L259.109 173.336L257.49 170.883L257.141 167.693L257.709 165.247L259.053 164.23L260.525 163.678L262.821 164.586L264.685 163.189L263.919 160.918L261.461 159.435L258.769 158.806L256.628 159.938L254.57 160.46L251.666 159.125L248.582 158.605L247.54 159.031L246.677 158.924L246.011 158.03L245.05 157.628L242.812 159.373L240.453 160.301L240.275 158.575L240.469 156.859L239.102 156.178L237.58 155.829L236.475 153.884L234.327 153.715L232.186 154.72L230.754 156.469L231.275 158.896L231.022 161.161L230.559 163.267L228.548 163.078L226.198 162.572L224.253 161.754L222.236 160.682L221.275 161.775L220.21 162.39L219.275 162.029L218.51 162.519L216.695 164.443L214.692 166.12L213.384 167.391L211.756 167.903L210.779 168.717L210.088 169.973L207.655 171.701L205.921 174.18L205.101 176.032L204.098 177.867L204.653 178.83L205.694 179.791L204.53 183.649L197.94 186.423L195.131 185.499L193.96 183.124L192.105 181.516L190.795 180.581L189.771 179.43L188.744 180.444L187.923 181.741L187.533 183.274L186.979 184.894L184.71 184.716L182.276 183.861L181.007 183.039L179.665 183.907L178.371 185.651L176.801 185.785L175.54 184.951L174.588 186.564L173.603 188.714L173.074 190.727L174.579 192.672L175.726 194.878L170.145 193.991L167.143 192.687L165.433 195.238L162.684 196.545L160.235 198.209L160.032 199.377L160.079 200.29L159.64 201.292L157.866 203.676L156.729 204.898L155.574 205.108L154.409 205.651L155.295 207.89L158.38 208.414L162.236 214.021L160.804 215.42L160.023 217.657L159.706 222.988L159.235 225.338L159.73 227.022L160.601 228.565L159.471 230.817L157.729 232.325L158.201 236.964L161.367 236.218L163.269 236.841L165.498 238.705L167.029 239.429L171.049 238.465L172.83 239.78L173.726 244.868L172.049 244.765L170.162 244.416L168.258 246.049L168.697 248.668L168.713 250.002L168.542 251.607L167.785 252.526L167.175 253.612L166.517 256.111L165.295 258.495L163.319 259.159L161.407 260.098L164.629 265.604L164.262 271.796L164.897 273.956L166.493 274.883L167.225 275.437L167.947 276.052L168.013 276.821L168.33 277.606L168.965 277.895L169.609 278.11L171.993 278.297L173.026 279.165L174.303 280.027L176.565 280.203L178.796 280.182L180.829 280.87L182.324 282.501L183.375 284.495L185.117 285.73L185.556 286.634L185.824 287.47L187.036 288.221L188.087 289.457L188.037 291.744L187.094 293.929L188.33 298.405L193.188 298.609L195.563 298.274L197.833 298.655L199.965 299.681L201.984 301.196L204.22 301.646L208.436 299.48L210.592 299.919L212.535 297.142L214.352 295.737L215.002 301.092L216.988 303.518L219.453 305.079L222.308 304.758L225.255 304.231L227.825 305.017L230.284 306.311L233.22 306.396L235.783 304.361L236.914 303.941L238.053 303.792L239.134 302.855L240.038 301.686L242.886 300.515L245.912 301.268L248.231 302.361L250.435 301.623L252.332 300.087L254.359 298.904L255.572 298.875L256.067 297.925L255.311 296.673L254.879 295.315L257.531 293.256L260.86 292.092L263.584 291.679L266.254 292.24L269.028 293.437L269.753 294.629L269.793 296.075L269.987 297.366L270.964 298.069L272.283 298.412L279.604 297.087L285.84 298.614L285.908 298.597L285.304 297.872L284.648 296.146L285.319 294.624L286.859 291.579L288.947 285.31L288.834 281.699L290.874 275.925L291.717 269.274L291.934 266.744L294.771 261.094L296 259.168L295.591 257.232L295.032 255.492Z" fill="#F6A555" stroke="white"/>
<path fill-rule="evenodd" clip-rule="evenodd" d="M123.946 219.95L126.485 219.386L127.404 218.05L128.502 218.323L128.363 219.437L129.333 219.935L129.47 221.682L130.285 224.285L129.901 226.581L128.869 228.242L127.73 232.465L125.672 234.13L124.54 234.512L122.782 233.488L120.211 232.208L119.178 230.289L118.453 226.835L117.217 224.532L116.598 221.844L118.178 215.311L118.486 214.544L118.275 213.9L104.191 217.755L97.0212 216.348L97.7389 214.295L98.9344 213.151L108.984 208.512L114.776 207.346L120.765 207.725L120.708 208.792L120.308 209.707L120.155 210.455L120.416 211.083L120.472 211.578L120.562 212.075L120.407 213.091L120.073 214.054L119.894 214.802L120.17 215.512L120.731 216.129L121.415 216.461L121.87 217.559L121.571 219.273L123.946 219.95Z" fill="#F6A555" stroke="white"/>
<path d="M139.259 255.157L137.656 252.3L136.981 248.959L137.086 245.589L136.273 242.69L133.856 241.207L131.521 240.449L128.982 240.976L128.77 238.199L128.91 235.501L129.853 231.726L131.634 228.515L132.352 226.878L133.149 225.424L134.443 224.445L134.743 222.75L133.734 222.415L132.645 221.922L131.318 222.89L130.285 224.284L129.903 226.58L128.869 228.241L127.728 232.465L125.67 234.129L124.54 234.512L122.782 233.487L120.211 232.207L119.178 230.289L118.453 226.834L117.217 224.531L116.598 221.844L118.176 215.311L118.487 214.544L118.275 213.902L104.191 217.756L97.0214 216.348L97.7391 214.297L98.9346 213.151L108.984 208.511L109.349 205.499L110.333 202.685L110.187 201.036L111.724 197.688L113.905 194.523L115.565 191.636L116.224 190.929L116.972 191.045L117.705 190.839L118.104 190.09L118.21 189.243L118.453 188.169L118.836 187.134L119.031 186.023L118.86 184.911L118.34 183.921L117.69 183.325L117.771 181.303L116.737 180.576L115.387 177.852L114.329 177.237L113.401 176.26L112.782 174.801L109.063 174.297L106.022 171.738L102.62 170.185L96.078 172.987L92.9939 172.985L89.3244 172.229L89.2997 172.223L87.7885 173.38L84.3676 174.761L82.9181 175.001L81.3117 175.722L82.1176 177.376L84.8208 180.377L83.1491 180.169L81.5533 179.705L82.2075 182.17L81.8107 183.57L81.0349 184.882L80.5746 187.088L79.9204 186.79L79.4655 186.406L79.1587 185.842L78.9206 185.015L80.2149 184.618L80.4406 183.742L79.7741 180.682L79.0758 179.506L78.9206 178.697L78.9982 177.921L79.3632 176.582L79.4461 175.983L79.2733 173.17L78.9471 171.721L78.3828 170.911L77.5752 171.06L76.0957 172.971L75.1541 173.595L76.3902 169.34L76.2756 167.237L74.6163 165.528L73.2462 164.629L71.3365 164.115L69.8288 163.562L68.4657 163.387L67.2455 163.398L65.9477 164.008L65.2194 165.38L64.7204 166.221L64.3977 167.02L64.6975 169.437L64.4876 170.254L64.1402 170.984L63.2762 171.583L63.5636 169.964L63.4684 169.044L62.6872 167.545L62.5321 166.84L63.2974 165.939L63.6677 164.606L62.8812 163.26L61.7298 162.624L60.5342 161.809L59.917 161.179L58.4129 160.137L56.8365 159.011L55.7097 158.02L54.4542 157.413L53.0118 157.454L53.1846 158.981L53.9181 161.257L55.5492 162.786L57.0481 163.507L58.1643 163.784L58.7021 164.419L58.6315 165.096L57.8945 165.528L56.914 165.524L56.1064 165.156L55.4399 164.562L54.1844 162.989L53.3768 162.227L52.7049 162.107L52.4351 163.17L52.7808 163.447L57.6053 168.556L58.2083 169.557L58.8943 171.564L59.4568 172.315V172.922L58.3353 172.874L57.7411 172.225L57.3372 171.239L56.78 170.174L55.4152 168.66L54.4612 168.011L54.038 168.556L53.703 170.871L52.2623 175.574L51.9414 178.025L51.6857 178.485L51.1091 178.148L50.5343 177.256L50.2698 175.983V171.583L50.4955 170.975L51.2061 170.127L51.3472 169.869L51.2643 169.196L50.8975 168.571L50.8076 167.882L50.4814 167.057L49.7125 167.039L48.822 167.526L48.1308 168.219L47.6318 166.623L48.092 165.505L48.8485 164.65L49.2452 163.844L48.6563 162.541L47.265 162.051L44.3643 162.1V162.834L44.7082 163.576L44.4084 163.881L43.7471 163.749L42.9995 163.17L42.2307 162.733L41.3842 162.878L40.6031 163.424L40.0194 164.181L41.4618 164.073L42.6715 164.442L43.2305 165.348L42.7103 166.875L41.5765 166.053L41.1991 166.374L41.4477 167.288L42.2113 168.219L43.2305 168.631L45.2918 168.667L45.9778 168.896L46.5932 170.531L46.304 172.742L45.1896 174.556L43.294 175.001V175.614L44.8122 176.251L45.4399 176.346V176.96L43.8635 177.36L43.0436 177.691L42.7103 178.025L42.3506 179.088L41.5765 178.584L40.3086 176.96L39.4693 177.944L40.0441 180.141L41.6734 183.669L39.404 182.11L38.4112 182.139L37.0852 183.362L36.5209 183.622L36.1048 183.098L35.8491 182.202L35.7715 181.354L36.066 181.096L37.482 180.169L37.9122 179.705L37.847 179.312L37.3532 177.864L37.3285 176.96L37.8099 176.106L38.5788 175.29L39.0584 174.376L38.078 171.784L37.7324 169.629L37.6759 167.501L37.9122 166.142L36.0801 166.708L35.7151 169.136L35.9126 172.114L35.7715 174.329L35.2584 175.214L34.7347 175.579L32.7791 175.614L31.6964 175.381L31.506 174.717L32.005 172.315L30.083 173.006L28.7234 174.112L28.6088 175.482L30.3898 176.96L29.0902 179.056L29.2365 180.282L30.4744 180.841L32.4846 180.985L31.8886 182.155L30.9664 182.394L28.7234 181.721L29.5645 183.234L30.3898 184.403L29.7179 184.258L29.1219 184.05L28.6035 184.01L28.1856 184.403L27.6425 183.602L27.2193 182.795L26.879 181.938L26.6286 180.985L26.3164 182.241L25.9179 183.138L23.9007 185.706L23.682 186.369L23.8354 188.76L23.7402 191.222L24.0488 192.013L24.971 191.174L25.4118 190.038L25.6428 187.593L26.0466 186.418L27.0659 187.258L28.3337 187.63L29.5451 188.224L30.3898 189.767L30.4092 191.25L29.5822 191.814L26.3341 191.782L25.9497 192.19L26.0731 193.093L26.3993 194.006L26.6286 194.463L27.5843 195.018L28.3901 194.962L29.1978 194.643L30.1024 194.463L31.64 193.891L33.7207 191.253L35.1755 190.439L35.7715 193.119L35.0803 195.025L37.392 198.827L36.3093 201.222L36.5791 201.788L36.759 202.451L36.8472 203.181L36.8348 203.898L37.5208 202.881L38.3742 202.043L39.3917 201.461L40.596 201.222L39.27 199.421L39.1536 198.612L40.0194 197.877L39.501 196.26L38.0656 193.962L37.3285 192.452L39.1219 192.424L39.6932 191.275L39.8854 189.703L40.596 188.425L41.8656 188.201L42.7103 189.215L42.4387 191.707L43.3416 192.137L42.8743 194.052L42.4952 199.352L44.0099 200.35L45.5316 200.419L46.9899 201.558L47.7023 200.661L48.5381 198.469L48.1925 195.9L48.7727 193.985L48.6739 192.32L48.1167 191.465L48.0726 190.774L48.323 190.079L49.5715 189.545L50.6877 188.324L51.3472 187.76L51.5905 188.624L51.9555 189.233L53.0118 190.439L51.1708 190.731L50.5678 191.939L50.9486 193.581L52.8372 193.935L53.5866 195.295L52.4775 196.189L51.6787 197.337L52.943 198.591L53.8758 198.785L54.5177 199.636L54.0451 200.694L53.9234 201.888L52.2817 201.833L50.7071 202.567L49.6208 202.634L49.6543 203.047L50.134 203.761L50.5307 205.445L50.596 206.344L50.2521 207.166L50.6171 208.065L50.991 208.141L51.6081 208.552L52.2906 209.195L53.8 208.649L54.0504 209.183L53.2886 210.372L51.6469 212.295L51.5958 213.39L52.0507 215.247L52.7684 217.056L53.5513 218.009L54.7998 217.769L56.4979 215.235L57.6053 214.602H62.1988L60.6665 215.424L57.4237 216.328L55.9089 218.539L54.2849 219.033L52.8566 219.823L54.038 222.017H53.0118V222.676L53.6466 223.237L54.5759 224.373L55.1137 224.746L57.7076 224.762L58.9525 225.088L59.4568 226.385L58.7268 227.402L55.223 228.254L54.038 229.352L55.2424 229.992L58.5857 231.017L59.4568 232.087L58.3036 232.854L57.3567 234.859L55.7026 239.412L56.1911 240.102L56.78 240.745L57.2279 240.992L57.8557 240.622L58.3811 240.745L59.2593 241.389L59.9188 242.147L61.0844 244.076L57.7834 243.122L55.4223 243.87L52.749 245.226L52.4351 248.074L52.973 248.571L53.2357 247.94L53.7136 246.104L55.2495 245.861L57.0287 247.002L57.0692 248.074L57.5647 248.079L58.6121 247.472L59.9964 248.074L61.7968 251.175L62.7825 251.505L63.8581 251.957L64.3712 252.567L63.2762 253.455L63.9868 254.64L65.3129 256.386L65.9671 257.444L66.3762 258.67L66.5049 259.56L66.9087 260.237L68.106 260.823L69.753 260.094L71.5093 259.796L72.9817 259.088L74.3148 257.806L75.9035 256.707L77.5223 256.21L81.0666 251.835L84.8331 251.422L89.2609 250.47L97.4128 247.897L100.317 248.479L99.6188 252.778L101.294 255.392L103.622 254.956L105.826 254.099L110.164 253.254L111.303 252.858L112.415 252.359L114.068 252.017L115.126 250.368L116.445 249.015L118.957 251.251L122.498 257.635L125.11 258.95L126.118 259.207L126.589 260.177L126.037 261.29L126.363 262.071L130.92 262.669L132.62 262.251L134.939 262.143L137.273 261.495L139.185 259.814L141.049 257.941L139.259 255.157ZM46.0994 217.845L45.507 216.034L45.2918 215.099L45.3712 214.612L45.4593 213.997L44.3431 213.371L43.8053 213.263V212.659H45.4593L44.7593 211.437L43.8653 210.906L43.4597 210.202L43.8053 209.405L43.5955 208.45L42.2677 205.441L42.1972 204.768L42.7967 204.286L43.1388 203.567L42.9995 202.966L41.952 201.285L40.4514 201.798L39.0566 203.096L38.376 203.988L39.1889 206.727L39.5521 208.896L39.8537 212.484L39.4252 214.835L40.2504 214.39L40.6154 215.272L41.6911 213.997L42.2307 214.602L40.8076 216.573L40.5643 218.035L41.4424 218.458L43.3186 217.272L42.9995 218.137L42.3946 218.695L42.0155 219.215L42.2307 220.678L43.3645 220.862L46.863 220.662L47.6106 221.013L47.1627 219.485L46.0994 217.845Z" fill="#F6A555" stroke="white"/>
<path fill-rule="evenodd" clip-rule="evenodd" d="M174.035 147.996L176.645 147.363L179.249 145.91L180.829 144.689L182.709 145.086L184.262 144.268L186.084 142.859L190.478 144.427L194.969 145.135L196.385 145.564L195.474 147.643L193.204 149.262L191.852 151.358L192.716 152.332L193.832 152.951L194.53 152.965L195.246 152.628L197.639 151.827L201.39 151.399L202.171 152.261L202.032 153.668L203.596 155.294L204.164 156.592L205.595 156.483L207.288 156.183L209.186 155.576L211.064 155.564L212.936 156.983L215.01 158.329L217.059 158.734L219.062 158.967L220.656 159.66L222.236 160.681L221.275 161.774L220.21 162.392L219.274 162.028L218.51 162.517L216.694 164.444L214.692 166.119L213.382 167.392L211.757 167.904L210.78 168.717L210.087 169.972L207.653 171.7L205.922 174.18L205.1 176.031L204.098 177.867L204.652 178.83L205.694 179.791L204.53 183.651L197.941 186.423L195.133 185.499L193.961 183.123L192.106 181.515L190.796 180.581L189.771 179.429L188.745 180.443L187.923 181.743L187.532 183.273L186.98 184.894L184.71 184.717L182.277 183.86L181.007 183.04L179.664 183.906L178.371 185.65L176.8 185.786L175.541 184.95L174.587 186.565L173.603 188.713L173.074 190.727L174.58 192.672L175.726 194.878L170.145 193.991L167.144 192.686L165.433 195.239L162.684 196.544L160.235 198.21L160.032 199.376L160.08 200.291L159.641 201.293L157.867 203.677L156.729 204.897L155.573 205.107L154.409 205.65L155.296 207.889L158.38 208.415L162.236 214.021L160.805 215.419L160.023 217.657L159.706 222.987L159.233 225.338L159.731 227.022L160.602 228.565L159.47 230.817L157.729 232.324L158.202 236.964L161.365 236.218L163.27 236.84L165.499 238.704L167.027 239.43L171.05 238.464L172.829 239.78L173.725 244.867L172.049 244.765L170.163 244.415L168.258 246.048L168.697 248.667L168.713 250.002L168.542 251.606L167.786 252.525L167.174 253.613L166.516 256.112L165.296 258.496L163.319 259.159L161.408 260.097L160.399 261.158L159.389 262.084L158.234 261.458L157.087 260.361L154.181 261.673L151.651 263.225L150.39 262.864L149.657 261.945L146.134 260.786L144.954 259.385L143.619 258.598L143.108 259.284L142.473 259.441L141.723 258.755L141.048 257.942L139.258 255.156L137.657 252.301L136.98 248.96L137.086 245.59L136.273 242.689L133.855 241.206L131.521 240.448L128.983 240.975L128.772 238.2L128.909 235.502L129.853 231.725L131.635 228.515L132.351 226.877L133.148 225.424L134.443 224.446L134.742 222.751L133.735 222.414L132.644 221.92L131.318 222.89L130.285 224.283L129.472 221.682L129.332 219.935L128.364 219.438L128.502 218.321L127.403 218.05L126.485 219.387L123.945 219.951L121.57 219.272L121.87 217.558L121.415 216.461L120.731 216.13L120.17 215.512L119.893 214.802L120.073 214.052L120.406 213.091L120.561 212.074L120.472 211.578L120.415 211.083L120.154 210.455L120.309 209.708L120.708 208.792L120.764 207.726L114.776 207.346L108.983 208.51L109.348 205.5L110.334 202.686L110.188 201.037L111.725 197.689L113.905 194.523L115.566 191.637L116.224 190.928L116.973 191.046L117.705 190.84L118.103 190.089L118.209 189.244L118.453 188.17L118.835 187.133L119.031 186.024L118.86 184.91L118.34 183.922L117.689 183.324L117.77 181.302L116.737 180.575L115.386 177.851L114.328 177.237L113.401 176.26L112.783 174.8L116.314 173.763L119.659 172.15L122.277 171.27L122.986 168.371L124.272 166.976L126.289 166.103L127.241 164.869L127.892 163.231L129.112 161.931L130.65 162.256L131.097 162.848L133.074 161.469L136.834 154.467L137.216 153.628L137.671 152.857L138.283 152.367L138.916 151.923L139.551 150.969L140.105 149.916L148.421 147.636L156.793 146.49L156.118 151.256L158.509 150.69L160.919 150.859L161.584 151.274L162.261 151.591L162.871 151.057L163.4 150.411L164.994 149.318L164.564 144.517L166.052 142.688L170.064 141.328L173.058 144.504V146.626L174.035 147.996Z" fill="#F6A555" stroke="white"/>
<path fill-rule="evenodd" clip-rule="evenodd" d="M265.457 341.775L265.067 342.558L263.852 342.534L262.953 342.493L261.846 342.676L261.031 342.627L260.176 343.013L259.236 343.126L259.16 344.477L259.788 345.415L259.894 346.538L259.488 347.82L257.725 348.645L256.3 347.4L255.436 346.686L254.794 345.895L252.731 348.109L251.791 349.873L251.49 351.751L250.851 352.2L250.474 351.255L249.534 350.236L249.613 351.144L249.8 353.1H249.199L248.934 352.452L248.596 352.299L247.788 352.839L247.023 353.322L246.498 352.673L245.861 350.506L246.124 348.555L246.725 346.076L246.838 344.687L247.492 343.491L248.688 342.003L249.811 340.291L250.633 334.6L251.754 333.206L253.251 332.118L255.108 331.375L257.101 331.453L258.647 332.44L259.086 334.554L260.495 336.514L262.292 337.97L263.717 339.809L265.302 341.43L265.457 341.775Z" fill="#F6A555" stroke="white"/>
</g>
<defs>
<filter id="filter0_d_1560_355" x="0.49469" y="0.322754" width="300.037" height="537.091" filterUnits="userSpaceOnUse" color-interpolation-filters="sRGB">
<feFlood flood-opacity="0" result="BackgroundImageFix"/>
<feColorMatrix in="SourceAlpha" type="matrix" values="0 0 0 0 0 0 0 0 0 0 0 0 0 0 0 0 0 0 127 0" result="hardAlpha"/>
<feOffset dy="4"/>
<feGaussianBlur stdDeviation="2"/>
<feComposite in2="hardAlpha" operator="out"/>
<feColorMatrix type="matrix" values="0 0 0 0 0 0 0 0 0 0 0 0 0 0 0 0 0 0 0.25 0"/>
<feBlend mode="normal" in2="BackgroundImageFix" result="effect1_dropShadow_1560_355"/>
<feBlend mode="normal" in="SourceGraphic" in2="effect1_dropShadow_1560_355" result="shape"/>
</filter>
</defs>
</svg>
